<svg width="51" height="51" viewBox="0 0 51 51" fill="none" xmlns="http://www.w3.org/2000/svg">
<rect width="51" height="51" rx="12.75" fill="#373946"/>
<path fill-rule="evenodd" clip-rule="evenodd" d="M37.7561 16.405H30.0124V18.7171H37.7561V16.405ZM20.1333 34.071C20.1333 34.071 26.0969 34.2579 26.0969 28.5295C26.0969 28.5295 26.3568 23.8693 22.582 23.8703C22.582 23.8703 25.4457 23.6567 25.4457 20.2989C25.4457 16.9402 23.1028 15.2998 20.1333 15.2998H10.3672V34.071H20.1333ZM30.8568 28.2213H40.5849C40.5849 28.2213 41.65 20.074 34.0532 20.074C26.8344 20.074 26.8416 27.2866 26.8416 27.2866C26.8416 27.2866 26.3465 34.4613 34.0532 34.4613C34.0532 34.4613 40.477 34.83 40.477 29.4704H37.1706C37.1706 29.4704 37.2795 31.4897 34.1611 31.4897C34.1611 31.4897 30.8568 31.7095 30.8568 28.2213ZM20.1333 18.635C20.1333 18.635 21.4614 18.635 21.4614 20.5865C21.4614 22.5412 20.6808 22.8237 19.7944 22.8237H14.6679V18.635H20.1333ZM20.1333 25.7161H14.6709V30.7348H19.5098C19.5342 30.7348 19.5621 30.7351 19.593 30.7355C19.6661 30.7365 19.7562 30.7377 19.858 30.7348C20.6356 30.7153 22.1137 30.4934 22.1137 28.2963C22.1137 25.6915 20.1333 25.7161 20.1333 25.7161ZM30.8208 25.7141C30.8208 25.7141 31.2255 22.8237 34.1231 22.8237C37.0238 22.8237 36.9858 25.7141 36.9858 25.7141H30.8208Z" fill="white"/>
</svg>
