<svg width="114" height="144" viewBox="0 0 114 144" fill="none" xmlns="http://www.w3.org/2000/svg">
<path fill-rule="evenodd" clip-rule="evenodd" d="M97.4682 15.67C96.9466 15.3494 96.2642 15.5159 95.944 16.0418C95.6238 16.5678 95.7872 17.2541 96.3088 17.5747C97.9532 18.5854 99.767 19.3484 101.467 20.0216C102.888 20.5842 104.343 21.0577 105.799 21.4748C99.4232 23.1355 92.6256 25.4168 86.558 28.7663C79.1525 32.8543 72.7502 38.5811 69.5885 46.7922C68.4713 49.6937 68.04 52.9375 68.2265 56.1825C57.3094 60.9527 47.9809 69.5585 45.1885 81.9686C45.0532 82.5697 45.4275 83.1659 46.0244 83.3002C46.6213 83.4346 47.2149 83.0561 47.3502 82.455C49.8898 71.1682 58.3324 63.1107 68.4655 58.5064C68.899 61.4306 69.8267 64.2887 71.1981 66.8266C74.4645 72.8718 80.3599 77.2665 88.2527 76.2497C97.2777 75.087 102.037 68.6001 101.467 62.4024C101.184 59.3184 99.5709 56.4033 96.6307 54.4235C93.7002 52.4502 89.5286 51.453 84.164 52.0012C79.5903 52.4686 74.8962 53.5648 70.4082 55.2878C70.342 52.6025 70.7452 49.9554 71.6549 47.5927C74.5635 40.039 80.4904 34.6567 87.6194 30.7213C93.5549 27.4448 100.265 25.2045 106.62 23.5638C105.413 24.9276 104.267 26.4303 103.376 28.0612C102.454 29.7484 101.893 31.5455 101.475 33.3233C101.455 33.4096 101.43 33.5001 101.399 33.615L101.389 33.6542C101.355 33.7797 101.315 33.9299 101.281 34.0864C101.214 34.3901 101.147 34.8019 101.207 35.2424C101.29 35.8524 101.849 36.2778 102.455 36.1925C103.061 36.1072 103.486 35.5435 103.403 34.9334C103.396 34.8816 103.398 34.774 103.444 34.5632C103.467 34.4625 103.494 34.3568 103.528 34.2316L103.539 34.1917C103.568 34.0828 103.603 33.9548 103.632 33.8302C104.026 32.1521 104.531 30.5713 105.318 29.1312C106.297 27.3375 107.66 25.664 109.12 24.1201C109.589 23.6245 109.995 23.2544 110.468 22.9939C110.732 22.8483 110.914 22.6105 110.997 22.3422C111.307 22.2917 111.62 22.208 111.93 22.0813C112.498 21.8495 112.773 21.199 112.545 20.6283C112.316 20.0576 111.67 19.7828 111.103 20.0145C110.286 20.3478 109.378 20.1223 108.046 19.775C106.08 19.2628 104.139 18.6802 102.284 17.9455C100.596 17.2773 98.9368 16.5727 97.4682 15.67ZM70.5805 57.6048C70.9337 60.4569 71.8037 63.2722 73.146 65.7564C76.0955 71.215 81.2138 74.9085 87.9778 74.0371C96.0254 73.0003 99.7015 67.4126 99.2603 62.6146C99.0384 60.2009 97.7841 57.8878 95.3943 56.2787C92.9949 54.663 89.3736 53.7103 84.3813 54.2204C79.7455 54.6942 75.0333 55.8283 70.5805 57.6048Z" fill="#FD514D"/>
<path d="M27.7534 90.1637C27.807 89.5759 27.3764 89.0568 26.7916 89.0043C26.2068 88.9519 25.6893 89.3858 25.6357 89.9736C25.5447 90.9719 25.1688 92.387 24.6374 94.0939C24.3844 94.9065 24.1035 95.7631 23.8129 96.6494L23.7823 96.7428C23.4818 97.6592 23.1722 98.6048 22.8796 99.547C22.2969 101.423 21.7672 103.331 21.5022 105.033C21.2444 106.689 21.1995 108.362 21.7947 109.636C22.0441 110.17 22.6772 110.399 23.2089 110.147C23.7405 109.895 23.9694 109.258 23.72 108.724C23.412 108.065 23.3562 106.945 23.6032 105.359C23.8429 103.819 24.3334 102.035 24.9095 100.179C25.1963 99.2556 25.5008 98.3255 25.8018 97.4074L25.8345 97.3078C26.1234 96.4267 26.4089 95.5562 26.6668 94.7277C27.1944 93.0332 27.6391 91.4169 27.7534 90.1637Z" fill="#FD514D"/>
<path d="M20.698 91.9381C19.2936 89.5577 17.2019 88.5466 14.9923 88.6936C12.8621 88.8354 10.7687 90.039 9.15906 91.761C5.93139 95.2141 4.28112 101.185 8.25619 106.479C10.4405 109.388 14.3305 110.718 17.7023 108.92C18.2215 108.643 18.42 107.996 18.1456 107.475C17.8712 106.953 17.2279 106.756 16.7087 107.032C14.4358 108.245 11.6385 107.431 9.95474 105.189C6.74673 100.917 8.0121 96.1058 10.7074 93.2223C12.0593 91.7759 13.6792 90.9225 15.1278 90.8261C16.4969 90.7349 17.8494 91.3045 18.8682 93.0313C19.1673 93.5384 19.8195 93.7047 20.3248 93.4029C20.8301 93.101 20.9972 92.4453 20.698 91.9381Z" fill="#FD514D"/>
<path d="M30.8498 101.909C31.37 102.182 31.5708 102.827 31.2984 103.35C30.8841 104.146 30.4012 105.23 30.0817 106.333C29.7535 107.465 29.6414 108.471 29.8162 109.185C29.9565 109.758 29.6079 110.338 29.0376 110.48C28.4674 110.622 27.8914 110.273 27.7512 109.7C27.4411 108.434 27.679 106.986 28.0401 105.739C28.4101 104.463 28.9561 103.244 29.4145 102.363C29.687 101.84 30.3296 101.637 30.8498 101.909Z" fill="#FD514D"/>
<path d="M31.5255 95.8394C31.9622 95.8434 32.3344 96.1114 32.4937 96.4912C33.1421 96.6697 33.5791 97.2849 33.511 97.9453C33.4712 98.3316 33.2361 98.7721 32.7445 98.9675C32.3105 99.14 31.9052 99.0277 31.6597 98.9181C31.2845 98.7507 30.8929 98.4905 30.6586 98.0235C30.4508 97.6093 30.4471 97.174 30.4502 96.8982C30.4569 96.3081 30.9383 95.8341 31.5255 95.8394Z" fill="#FD514D"/>
<path d="M39.7432 102.903C40.5163 103.197 41.1886 103.748 41.7082 104.548C42.029 105.041 41.8904 105.704 41.3985 106.027C40.9067 106.351 40.2479 106.213 39.927 105.72C39.6282 105.26 39.2988 105.021 38.9867 104.902C38.6675 104.781 38.2967 104.759 37.8865 104.849C37.0392 105.035 36.1427 105.677 35.5871 106.517C35.0346 107.353 34.9371 108.182 35.2745 108.831C35.6251 109.506 36.6318 110.36 39.1253 110.781C39.7041 110.879 40.0933 111.43 39.9946 112.012C39.8958 112.594 39.3465 112.987 38.7676 112.889C35.991 112.419 34.1874 111.36 33.3891 109.824C32.5777 108.263 32.993 106.584 33.8165 105.338C34.637 104.096 35.98 103.081 37.4373 102.762C38.1795 102.599 38.9773 102.612 39.7432 102.903Z" fill="#FD514D"/>
<path d="M48.3717 98.583C48.5366 98.0163 48.2134 97.4235 47.6498 97.2591C47.0862 97.0947 46.4957 97.4208 46.3307 97.9876C45.9207 99.3968 45.5654 100.86 45.2171 102.293C45.0081 103.154 44.8016 104.004 44.5872 104.826C44.4111 105.502 44.2082 106.212 44.0012 106.936C43.6831 108.049 43.3553 109.195 43.1001 110.304C42.9914 110.776 42.8852 111.252 42.7799 111.723L42.7792 111.726C42.7272 111.959 42.6754 112.191 42.6237 112.421C42.6157 112.456 42.609 112.49 42.6037 112.518L42.5973 112.552L42.5898 112.593L42.5842 112.623L42.5791 112.65C42.3247 113.125 42.4612 113.724 42.9125 114.036C43.3962 114.369 44.0583 114.245 44.3913 113.758C44.553 113.522 44.6165 113.281 44.6464 113.149C44.6619 113.081 44.6737 113.016 44.6812 112.975L44.6819 112.971C44.6909 112.922 44.6945 112.902 44.6978 112.887C44.7515 112.649 44.8043 112.412 44.8569 112.177C44.9612 111.71 45.0647 111.246 45.1718 110.781C45.1841 110.727 45.1965 110.674 45.2091 110.621C46.2769 111.878 47.5104 112.925 48.6785 113.916C48.8165 114.033 48.9536 114.15 49.0894 114.266C49.1545 114.321 49.2208 114.374 49.2718 114.414L49.2779 114.419C49.3347 114.464 49.3758 114.497 49.4132 114.529C49.4771 114.584 49.497 114.608 49.497 114.608C49.7671 115.021 50.0648 115.389 50.3425 115.724C50.7182 116.177 51.3886 116.237 51.84 115.858C52.2913 115.479 52.3526 114.805 51.9769 114.353C51.7069 114.028 51.4735 113.735 51.2728 113.428C51.1162 113.189 50.9276 113.014 50.791 112.898C50.7232 112.84 50.6555 112.786 50.6035 112.745L50.5995 112.742C50.5419 112.696 50.5026 112.665 50.4678 112.635C50.3375 112.524 50.2081 112.414 50.0797 112.305C48.9429 111.338 47.8848 110.439 46.9801 109.408C47.4439 109.21 47.8672 109.033 48.4313 108.813C49.1436 108.535 49.8376 108.295 50.5528 108.047C51.0122 107.888 51.4805 107.726 51.9681 107.548C52.9041 107.208 53.4643 106.988 54.3841 106.581C55.0312 106.295 55.6586 105.964 56.2506 105.651C56.4549 105.543 56.655 105.437 56.8502 105.336C57.3729 105.066 57.5798 104.422 57.3123 103.897C57.0448 103.373 56.4041 103.166 55.8814 103.436C55.6477 103.557 55.4245 103.675 55.2071 103.79C54.636 104.091 54.1051 104.372 53.5316 104.626C52.6627 105.01 52.148 105.212 51.2491 105.539C50.8276 105.692 50.3842 105.846 49.9322 106.003C49.1796 106.264 48.4034 106.533 47.6656 106.821C47.0367 107.067 46.5674 107.264 46.0568 107.483C46.2528 106.8 46.4517 106.102 46.6443 105.363C46.8791 104.463 47.0926 103.582 47.3036 102.712C47.6405 101.323 47.9711 99.9597 48.3717 98.583Z" fill="#FD514D"/>
<path fill-rule="evenodd" clip-rule="evenodd" d="M60.1939 128.653C60.2766 128.032 60.071 127.462 59.8174 127.027C59.5573 126.581 59.1928 126.181 58.7979 125.858C58.4018 125.533 57.9386 125.255 57.4532 125.08C56.9786 124.908 56.4025 124.805 55.8263 124.944L55.821 124.945L55.8158 124.946C54.3727 125.309 53.526 126.474 53.1382 127.725C52.7518 128.971 52.7621 130.441 53.0968 131.797C53.4318 133.154 54.1189 134.506 55.2026 135.454C56.3176 136.429 57.8066 136.93 59.5682 136.597C60.1468 136.487 60.5296 135.926 60.4234 135.343C60.3172 134.76 59.762 134.377 59.1835 134.486C58.0831 134.694 57.2459 134.392 56.602 133.829C55.9267 133.238 55.4221 132.316 55.164 131.27L55.1626 131.265C55.8497 131.31 56.6428 131.327 57.3664 131.213C57.9485 131.122 58.5893 130.933 59.1269 130.526C59.6996 130.092 60.0862 129.462 60.1939 128.653ZM57.0464 129.091C56.4316 129.188 55.7157 129.155 55.0161 129.099C55.0483 128.835 55.1003 128.586 55.1711 128.358C55.4179 127.562 55.8341 127.156 56.3155 127.032C56.3576 127.023 56.4914 127.016 56.7261 127.101C56.9562 127.184 57.2133 127.332 57.4508 127.527C57.6894 127.722 57.8717 127.935 57.9801 128.121C58.0736 128.281 58.0808 128.364 58.082 128.377C58.0821 128.379 58.0821 128.379 58.0822 128.379C58.05 128.615 57.9637 128.726 57.8522 128.81C57.7052 128.921 57.4497 129.028 57.0464 129.091ZM58.0822 128.379C58.0821 128.379 58.0821 128.379 58.082 128.377C58.0821 128.377 58.0827 128.376 58.0828 128.375C58.0826 128.377 58.0824 128.378 58.0822 128.379Z" fill="#FD514D"/>
<path d="M40.9882 122.47C41.0768 121.883 40.6772 121.337 40.0957 121.25C39.5142 121.163 38.971 121.568 38.8824 122.154C38.6594 123.631 38.4697 125.068 38.2814 126.494C38.0378 128.339 37.7968 130.164 37.4897 132.03C37.3933 132.616 37.7856 133.167 38.3659 133.262C38.9462 133.357 39.4947 132.959 39.591 132.374C39.8969 130.515 40.1514 128.594 40.4033 126.693L40.4572 126.286C41.7061 125.848 42.5575 125.81 43.0472 126.008C43.3915 126.148 43.8269 126.521 43.8875 127.862C43.9167 128.508 43.8194 129.536 43.6693 130.575C43.5209 131.601 43.3361 132.537 43.2231 132.97C43.0733 133.544 43.4129 134.13 43.9817 134.279C44.5505 134.428 45.1331 134.083 45.2829 133.509C45.4243 132.968 45.6228 131.944 45.7771 130.876C45.8836 130.14 45.9766 129.332 46.0097 128.618C46.1129 128.546 46.2053 128.455 46.2812 128.345C46.879 127.48 47.4124 127.041 47.807 126.851C48.1742 126.674 48.3985 126.716 48.5425 126.789C48.9092 126.974 49.4947 127.816 49.3437 129.586C49.2715 130.432 49.1482 131.28 49.0142 132.158L48.9641 132.485C48.8462 133.252 48.7245 134.045 48.6352 134.842C48.5691 135.431 48.9893 135.961 49.5738 136.026C50.1583 136.09 50.6857 135.664 50.7518 135.075C50.8358 134.325 50.9503 133.579 51.0687 132.808L51.1194 132.477C51.2538 131.597 51.3871 130.687 51.466 129.762C51.6427 127.69 51.0526 125.649 49.5004 124.867C48.6849 124.456 47.764 124.495 46.8951 124.913C46.4569 125.124 46.0317 125.43 45.6225 125.823C45.2737 124.983 44.6906 124.356 43.8465 124.015C42.9133 123.637 41.8363 123.696 40.7727 123.955C40.8427 123.455 40.9143 122.959 40.9882 122.47Z" fill="#FD514D"/>
</svg>
