<svg width="52" height="51" viewBox="0 0 52 51" fill="none" xmlns="http://www.w3.org/2000/svg">
<rect x="0.25" width="51" height="51" rx="12.75" fill="#373946"/>
<path fill-rule="evenodd" clip-rule="evenodd" d="M25.7492 40.8002C22.7232 40.8002 19.7651 39.9029 17.249 38.2217C14.7329 36.5405 12.7719 34.151 11.6139 31.3553C10.4558 28.5596 10.1529 25.4832 10.7432 22.5153C11.3336 19.5474 12.7907 16.8212 14.9305 14.6815C17.0702 12.5417 19.7964 11.0845 22.7643 10.4942C25.7323 9.90383 28.8086 10.2068 31.6043 11.3648C34.4 12.5229 36.7895 14.4839 38.4707 17C40.1519 19.516 41.0492 22.4741 41.0492 25.5002C41.0441 29.5564 39.4305 33.4451 36.5623 36.3132C33.6941 39.1814 29.8055 40.795 25.7492 40.8002ZM27.1791 20.1841C25.8409 17.7936 24.2629 15.5454 22.4695 13.4744C24.1823 12.9729 25.9849 12.8565 27.748 13.1335C29.5111 13.4105 31.1911 14.0741 32.6676 15.0767C31.1881 17.1203 29.3237 18.8552 27.1791 20.1841ZM15.812 17.9644C14.7475 19.3586 13.9885 20.9614 13.5843 22.6683C17.327 23.3714 21.1943 22.9464 24.6949 21.4471C23.311 18.9807 21.6568 16.6762 19.7627 14.576C18.2226 15.4156 16.8765 16.5701 15.812 17.9644ZM16.5692 33.943C14.4317 31.6504 13.2394 28.6347 13.231 25.5002C14.5201 25.7 15.8213 25.8116 17.1256 25.834C20.1783 25.8237 23.1952 25.1756 25.9829 23.9313C26.3334 24.6657 26.645 25.3861 26.9454 26.1567C22.7801 27.6455 19.1629 30.3599 16.5692 33.943ZM38.2368 25.222C38.1655 22.1171 36.9407 19.15 34.8013 16.8988C33.0822 19.2122 30.9277 21.1674 28.4587 22.6544C28.8815 23.539 29.2599 24.4348 29.6132 25.3444C32.4516 24.7362 35.3822 24.6946 38.2368 25.222ZM38.0059 28.0038C37.6505 29.6911 36.951 31.2869 35.9511 32.6917C34.9513 34.0965 33.6725 35.2801 32.1947 36.1685C31.9254 33.3979 31.3736 30.6621 30.5478 28.0038C33.0098 27.5143 35.544 27.5143 38.0059 28.0038ZM29.5408 37.3619C29.3163 34.4384 28.7563 31.5504 27.8717 28.7549C24.1445 30.0917 20.9229 32.5504 18.65 35.7929C20.209 36.9032 22.0108 37.6248 23.9052 37.8978C25.7996 38.1707 27.7318 37.9869 29.5408 37.3619Z" fill="white"/>
</svg>
