<svg width="51" height="51" viewBox="0 0 51 51" fill="none" xmlns="http://www.w3.org/2000/svg">
<rect width="51" height="51" rx="12.75" fill="#373946"/>
<path fill-rule="evenodd" clip-rule="evenodd" d="M37.0108 38.8625C38.1232 38.8625 39.023 37.9853 39.023 36.9007V13.4365C39.023 12.3538 38.1222 11.4746 37.0108 11.4746H13.8168C12.7074 11.4746 11.8066 12.3528 11.8066 13.4365V36.9007C11.8066 37.9853 12.7074 38.8625 13.8168 38.8625H37.0108ZM15.7025 18.2082C15.7025 16.9941 16.6228 16.0717 18.028 16.0717C19.4352 16.0717 20.299 16.9952 20.3267 18.2082C20.3267 19.3946 19.4341 20.3447 18.0002 20.3447H17.9735C16.5951 20.3447 15.7025 19.3946 15.7025 18.2082ZM15.9451 22.0349H20.0557V34.4028H15.9451V22.0349ZM26.4447 23.785C26.9901 22.9427 27.9648 21.743 30.1475 21.743C32.852 21.743 34.8806 23.5107 34.8827 27.3071L34.8817 34.3995H30.771V27.7826C30.771 26.1187 30.1763 24.9847 28.689 24.9847C27.553 24.9847 26.8771 25.7499 26.5792 26.4895C26.4683 26.7534 26.4447 27.1242 26.4447 27.493V34.4026H22.334C22.334 34.4026 22.3874 23.1933 22.334 22.0347H26.4447V23.785ZM26.4416 23.8281H26.4159C26.419 23.8227 26.4227 23.8174 26.4264 23.8121C26.4324 23.8035 26.4384 23.7949 26.4416 23.786V23.8281Z" fill="url(#paint0_linear_2101_519)"/>
<path fill-rule="evenodd" clip-rule="evenodd" d="M37.0108 38.8625C38.1232 38.8625 39.023 37.9853 39.023 36.9007V13.4365C39.023 12.3538 38.1222 11.4746 37.0108 11.4746H13.8168C12.7074 11.4746 11.8066 12.3528 11.8066 13.4365V36.9007C11.8066 37.9853 12.7074 38.8625 13.8168 38.8625H37.0108ZM15.7025 18.2082C15.7025 16.9941 16.6228 16.0717 18.028 16.0717C19.4352 16.0717 20.299 16.9952 20.3267 18.2082C20.3267 19.3946 19.4341 20.3447 18.0002 20.3447H17.9735C16.5951 20.3447 15.7025 19.3946 15.7025 18.2082ZM15.9451 22.0349H20.0557V34.4028H15.9451V22.0349ZM26.4447 23.785C26.9901 22.9427 27.9648 21.743 30.1475 21.743C32.852 21.743 34.8806 23.5107 34.8827 27.3071L34.8817 34.3995H30.771V27.7826C30.771 26.1187 30.1763 24.9847 28.689 24.9847C27.553 24.9847 26.8771 25.7499 26.5792 26.4895C26.4683 26.7534 26.4447 27.1242 26.4447 27.493V34.4026H22.334C22.334 34.4026 22.3874 23.1933 22.334 22.0347H26.4447V23.785ZM26.4416 23.8281H26.4159C26.419 23.8227 26.4227 23.8174 26.4264 23.8121C26.4324 23.8035 26.4384 23.7949 26.4416 23.786V23.8281Z" fill="white"/>
<defs>
<linearGradient id="paint0_linear_2101_519" x1="25.5004" y1="-0.133618" x2="25.5004" y2="50.8664" gradientUnits="userSpaceOnUse">
<stop stop-color="#BE1FD8"/>
<stop offset="1" stop-color="#FF3E60"/>
</linearGradient>
</defs>
</svg>
