<svg width="183" height="44" viewBox="0 0 183 44" fill="none" xmlns="http://www.w3.org/2000/svg">
<path d="M64.4505 29.6094C62.99 29.6094 61.6658 29.2979 60.4779 28.6747C59.3095 28.0321 58.3845 27.146 57.7029 26.0165C57.0213 24.8676 56.6805 23.5434 56.6805 22.0439C56.6805 20.5055 57.0116 19.1715 57.6737 18.0421C58.3552 16.9126 59.2802 16.0363 60.4487 15.4131C61.6171 14.7705 62.951 14.4492 64.4505 14.4492C65.7552 14.4492 66.8652 14.6439 67.7805 15.0334C68.6958 15.4228 69.4358 15.9681 70.0005 16.6692C70.5653 17.3507 70.9742 18.1492 71.2274 19.0644C71.5 19.9797 71.6363 20.9728 71.6363 22.0439C71.6363 22.9007 71.5 23.7771 71.2274 24.6728C70.9547 25.5492 70.536 26.3671 69.9713 27.1265C69.4066 27.8665 68.6666 28.4702 67.7513 28.9376C66.836 29.3855 65.7358 29.6094 64.4505 29.6094ZM65.6774 26.6884C66.8263 26.6884 67.8195 26.4936 68.6568 26.1042C69.4942 25.7147 70.1368 25.1694 70.5847 24.4684C71.0326 23.7673 71.2566 22.9592 71.2566 22.0439C71.2566 21.0507 71.0229 20.2134 70.5555 19.5318C70.1076 18.8307 69.465 18.2952 68.6276 17.9252C67.8097 17.5552 66.8263 17.3702 65.6774 17.3702C64.061 17.3702 62.805 17.7986 61.9092 18.6555C61.0134 19.5123 60.5655 20.6418 60.5655 22.0439C60.5655 22.9786 60.7797 23.7965 61.2081 24.4976C61.6366 25.1792 62.2305 25.7147 62.99 26.1042C63.7689 26.4936 64.6647 26.6884 65.6774 26.6884ZM71.2566 8.92836H75.0539V29.2881H71.5195C71.461 28.8402 71.4026 28.2657 71.3442 27.5647C71.2858 26.8442 71.2566 26.1723 71.2566 25.5492V8.92836Z" fill="#3A4152"/>
<path d="M92.3792 24.4684H96.0598C95.904 25.4615 95.4853 26.3476 94.8037 27.1265C94.1416 27.9055 93.2361 28.5189 92.0871 28.9668C90.9382 29.4147 89.5361 29.6386 87.8808 29.6386C86.0308 29.6386 84.395 29.3465 82.9734 28.7623C81.5518 28.1586 80.4418 27.2921 79.6434 26.1626C78.845 25.0331 78.4458 23.67 78.4458 22.0731C78.4458 20.4763 78.8353 19.1131 79.6142 17.9836C80.3932 16.8347 81.4739 15.9584 82.8566 15.3547C84.2587 14.751 85.8945 14.4492 87.764 14.4492C89.6724 14.4492 91.2595 14.751 92.5253 15.3547C93.7911 15.9584 94.7258 16.8736 95.3295 18.1005C95.9526 19.3078 96.2155 20.856 96.1182 22.7449H82.2724C82.3697 23.485 82.6424 24.1568 83.0903 24.7605C83.5576 25.3642 84.1808 25.8413 84.9597 26.1918C85.7582 26.5423 86.7026 26.7176 87.7932 26.7176C89.0005 26.7176 90.0034 26.5131 90.8018 26.1042C91.6197 25.6757 92.1455 25.1305 92.3792 24.4684ZM87.5887 17.341C86.1866 17.341 85.0474 17.6526 84.1711 18.2757C83.2947 18.8794 82.73 19.6292 82.4768 20.5249H92.35C92.2526 19.5513 91.7853 18.7821 90.9479 18.2173C90.13 17.6331 89.0103 17.341 87.5887 17.341Z" fill="#3A4152"/>
<path d="M114.705 14.7705L107.168 22.8618L101.735 29.2881H97.0908L104.948 20.7878L110.089 14.7705H114.705ZM97.0908 14.7705H101.735L115.114 29.2881H110.469L104.832 22.9494L97.0908 14.7705Z" fill="#3A4152"/>
<path d="M130.005 24.4684H133.685C133.53 25.4615 133.111 26.3476 132.429 27.1265C131.767 27.9055 130.862 28.5189 129.713 28.9668C128.564 29.4147 127.162 29.6386 125.506 29.6386C123.656 29.6386 122.021 29.3465 120.599 28.7623C119.178 28.1586 118.068 27.2921 117.269 26.1626C116.471 25.0331 116.071 23.67 116.071 22.0731C116.071 20.4763 116.461 19.1131 117.24 17.9836C118.019 16.8347 119.1 15.9584 120.482 15.3547C121.884 14.751 123.52 14.4492 125.39 14.4492C127.298 14.4492 128.885 14.751 130.151 15.3547C131.417 15.9584 132.352 16.8736 132.955 18.1005C133.578 19.3078 133.841 20.856 133.744 22.7449H119.898C119.995 23.485 120.268 24.1568 120.716 24.7605C121.183 25.3642 121.806 25.8413 122.585 26.1918C123.384 26.5423 124.328 26.7176 125.419 26.7176C126.626 26.7176 127.629 26.5131 128.428 26.1042C129.245 25.6757 129.771 25.1305 130.005 24.4684ZM125.214 17.341C123.812 17.341 122.673 17.6526 121.797 18.2757C120.92 18.8794 120.356 19.6292 120.103 20.5249H129.976C129.878 19.5513 129.411 18.7821 128.574 18.2173C127.756 17.6331 126.636 17.341 125.214 17.341Z" fill="#3A4152"/>
<path d="M136.57 14.7705H140.367V29.2881H136.57V14.7705ZM147.115 14.4492C148.01 14.4492 148.838 14.566 149.597 14.7997C150.357 15.0334 151.019 15.3936 151.584 15.8805C152.148 16.3673 152.587 16.9905 152.898 17.7499C153.21 18.4899 153.366 19.376 153.366 20.4081V29.2881H149.568V21.0799C149.568 19.8531 149.266 18.9573 148.663 18.3926C148.078 17.8084 147.115 17.5163 145.771 17.5163C144.758 17.5163 143.843 17.711 143.025 18.1005C142.207 18.4899 141.545 18.9865 141.039 19.5902C140.532 20.1744 140.24 20.7878 140.162 21.4305L140.133 19.9407C140.231 19.2592 140.455 18.5971 140.805 17.9544C141.156 17.3118 141.623 16.7276 142.207 16.2018C142.811 15.6565 143.522 15.2281 144.34 14.9165C145.157 14.6049 146.082 14.4492 147.115 14.4492Z" fill="#3A4152"/>
<path d="M163.892 29.6094C162.431 29.6094 161.107 29.2979 159.919 28.6747C158.751 28.0321 157.826 27.146 157.144 26.0165C156.463 24.8676 156.122 23.5434 156.122 22.0439C156.122 20.5055 156.453 19.1715 157.115 18.0421C157.797 16.9126 158.722 16.0363 159.89 15.4131C161.058 14.7705 162.392 14.4492 163.892 14.4492C165.197 14.4492 166.307 14.6439 167.222 15.0334C168.137 15.4228 168.877 15.9681 169.442 16.6692C170.007 17.3507 170.416 18.1492 170.669 19.0644C170.941 19.9797 171.078 20.9728 171.078 22.0439C171.078 22.9007 170.941 23.7771 170.669 24.6728C170.396 25.5492 169.977 26.3671 169.413 27.1265C168.848 27.8665 168.108 28.4702 167.193 28.9376C166.277 29.3855 165.177 29.6094 163.892 29.6094ZM165.119 26.6884C166.268 26.6884 167.261 26.4936 168.098 26.1042C168.936 25.7147 169.578 25.1694 170.026 24.4684C170.474 23.7673 170.698 22.9592 170.698 22.0439C170.698 21.0507 170.464 20.2134 169.997 19.5318C169.549 18.8307 168.906 18.2952 168.069 17.9252C167.251 17.5552 166.268 17.3702 165.119 17.3702C163.502 17.3702 162.246 17.7986 161.351 18.6555C160.455 19.5123 160.007 20.6418 160.007 22.0439C160.007 22.9786 160.221 23.7965 160.65 24.4976C161.078 25.1792 161.672 25.7147 162.431 26.1042C163.21 26.4936 164.106 26.6884 165.119 26.6884ZM170.698 8.92836H174.495V29.2881H170.961C170.902 28.8402 170.844 28.2657 170.786 27.5647C170.727 26.8442 170.698 26.1723 170.698 25.5492V8.92836Z" fill="#3A4152"/>
<path d="M182.999 25.9581V29.2881H178.588V25.9581H182.999Z" fill="#3A4152"/>
<path fill-rule="evenodd" clip-rule="evenodd" d="M31.4755 5.40436C26.6511 -0.0250752 18.7322 -1.30388 11.8243 1.29921C8.42113 2.58162 5.57944 5.23226 3.62915 8.2367C1.67919 11.2406 0.454989 14.8513 0.565617 18.2855L0.56759 18.3467L0.572612 18.4078C0.636528 19.1851 0.751689 19.9111 0.919396 20.589C0.896267 20.6426 0.874871 20.6975 0.855295 20.7535C-1.54656 27.6228 1.29573 35.0822 7.06041 39.7083C9.88749 41.977 13.6326 43.0808 17.2417 43.2451C20.8502 43.4094 24.6272 42.6493 27.5814 40.836L27.6341 40.8036L27.6851 40.7688C28.4167 40.2688 29.0587 39.7457 29.6141 39.1957C29.6277 39.1934 29.6413 39.191 29.655 39.1884C29.6643 39.1867 29.6737 39.1849 29.683 39.1831C36.8974 37.7602 41.9778 31.5685 43.1066 24.3167C43.6603 20.7603 42.7324 17.0098 41.0526 13.8499C39.373 10.6906 36.8008 7.8546 33.7242 6.25216L33.6693 6.22358L33.6131 6.19771C32.8811 5.86086 32.1698 5.59655 31.4755 5.40436ZM6.13153 14.5863C6.51707 13.3523 7.10374 12.1018 7.86912 10.9227C9.39402 8.57358 11.463 6.7609 13.6195 5.94828C17.3805 4.53099 21.2695 4.69251 24.3535 6.18386C23.8615 6.44945 23.4031 6.74215 22.9738 7.04157C22.2604 7.53909 21.4455 8.19892 20.699 8.80327C20.2775 9.14456 19.8777 9.46828 19.5305 9.73496C18.4243 10.5846 17.3083 11.3203 16.0008 11.8432C14.5756 12.4132 13.2181 12.7616 11.8854 13.0526C11.5391 13.1282 11.1754 13.2034 10.8039 13.2801C9.83532 13.4802 8.81411 13.6913 7.91407 13.9491C7.32597 14.1175 6.72554 14.3213 6.13153 14.5863ZM5.05682 26.3169C5.22556 29.7764 7.0407 33.2818 10.2363 35.8462C12.0277 37.2838 14.6517 38.1461 17.4736 38.2746C18.9113 38.34 20.3212 38.2112 21.6113 37.914C21.0551 37.5209 20.5553 37.0871 20.0961 36.6459C19.4243 36.0004 18.7339 35.2277 18.079 34.4948C17.8279 34.2138 17.582 33.9386 17.3442 33.6786C16.4295 32.6779 15.4519 31.6843 14.2459 30.7422C13.1394 29.8778 11.9405 29.2831 10.646 28.7531C10.2397 28.5867 9.75733 28.4034 9.24858 28.2101C8.34782 27.8678 7.36437 27.4941 6.57397 27.1274C6.0715 26.8942 5.55961 26.6296 5.05682 26.3169ZM26.8799 34.6065C26.3014 34.6074 25.8619 34.5148 25.5037 34.3842C24.9119 34.1685 24.3297 33.7726 23.6081 33.0791C23.0803 32.572 22.5906 32.0237 21.999 31.3612C21.7209 31.0498 21.4202 30.7131 21.0824 30.3436C20.0834 29.2508 18.8916 28.0278 17.3702 26.8393C15.7493 25.573 14.0755 24.771 12.5745 24.1564C11.8657 23.8662 11.2761 23.6449 10.7419 23.4444C10.0176 23.1726 9.39474 22.9388 8.71511 22.6235C7.68795 22.147 7.0332 21.6827 6.58057 21.0974C6.50574 21.0006 6.43159 20.8942 6.35939 20.7762C6.64331 20.2826 6.94074 19.9528 7.23138 19.7108C7.71371 19.3092 8.34991 19.005 9.31682 18.728C10.024 18.5255 10.7485 18.376 11.6238 18.1953C12.0352 18.1104 12.4804 18.0186 12.9723 17.9112C14.4278 17.5934 16.093 17.1745 17.8909 16.4554C19.8064 15.6893 21.3395 14.6483 22.6222 13.6631C23.2278 13.1979 23.714 12.801 24.1545 12.4413C24.7517 11.9536 25.2653 11.5343 25.8787 11.1065C26.8058 10.4599 27.5379 10.1271 28.2767 10.0277C28.3829 10.0134 28.4953 10.0032 28.6146 9.99836C28.9741 10.564 29.1369 11.0384 29.2088 11.4505C29.316 12.0646 29.2603 12.7607 29.0138 13.7249C28.8335 14.4301 28.5981 15.1234 28.3136 15.9608C28.1799 16.3546 28.0353 16.7803 27.8806 17.2541C27.4228 18.6554 26.9475 20.2868 26.6673 22.1828C26.3688 24.2028 26.5037 26.0358 26.7163 27.6271C26.8167 28.3783 26.9178 28.9933 27.0095 29.5505C27.1338 30.306 27.2406 30.9559 27.3045 31.695C27.4009 32.812 27.3218 33.6043 27.0353 34.2844C26.9916 34.3881 26.9404 34.4955 26.8799 34.6065ZM33.8973 14.9435C34.0633 14.2942 34.1992 13.6101 34.2612 12.8952C35.1435 13.8291 35.9421 14.9386 36.5932 16.1634C37.9067 18.6341 38.4791 21.3068 38.1283 23.5604C37.4994 27.6001 35.3362 30.9313 32.3771 32.8182C32.39 32.2869 32.3661 31.7696 32.3231 31.2721C32.2489 30.4126 32.0842 29.3845 31.9334 28.4428C31.8482 27.9109 31.7674 27.4066 31.7099 26.9758C31.5265 25.6035 31.4476 24.2805 31.6514 22.9015C31.8734 21.3986 32.2549 20.0653 32.6741 18.7821C32.783 18.4486 32.9011 18.1006 33.0217 17.7451C33.3362 16.8182 33.6678 15.8411 33.8973 14.9435Z" fill="#3A4152"/>
</svg>
