<svg width="80" height="68" viewBox="0 0 80 68" fill="none" xmlns="http://www.w3.org/2000/svg">
<rect x="42.8025" y="7.81626" width="37.0413" height="13.1702" rx="4.1157" fill="#4B47FF"/>
<rect x="47.7413" y="12.7551" width="3.29256" height="3.29256" rx="1.64628" fill="white"/>
<path d="M31.2793 66.2593H4.93884C3.12041 66.2593 1.64628 64.7852 1.64628 62.9668V10.5691V5.34704C1.64628 3.52861 3.1204 2.05448 4.93883 2.05448H31.2793C33.0977 2.05448 34.5718 3.52861 34.5718 5.34704V10.5691V62.9668C34.5718 64.7852 33.0977 66.2593 31.2793 66.2593Z" stroke="#373946" stroke-width="3.29256"/>
<path d="M13.4969 4.5237C13.4967 4.5237 13.4964 4.5237 13.4962 4.5237H22.7204C22.7201 4.5237 22.7199 4.5237 22.7196 4.5237H13.4969Z" stroke="#373946" stroke-width="3.29256"/>
<rect x="42.8025" y="48.9732" width="37.0413" height="13.1702" rx="4.1157" fill="#4B47FF"/>
<rect x="47.7413" y="53.9121" width="3.29256" height="3.29256" rx="1.64628" fill="white"/>
<rect x="29.6323" y="28.3947" width="37.0413" height="13.1702" rx="4.1157" fill="#4B47FF"/>
<path d="M8.23062 30.041L18.1083 30.041" stroke="#373946" stroke-width="3.29256" stroke-linecap="round"/>
<rect x="6.58435" y="34.1567" width="19.7553" height="3.29256" rx="1.64628" fill="#373946"/>
<rect x="6.58435" y="40.7418" width="23.0479" height="20.5785" rx="1.64628" fill="#373946"/>
<rect x="9.87689" y="52.2658" width="10.7008" height="2.46942" rx="1.23471" fill="white"/>
<rect x="41.9793" y="33.3336" width="18.9322" height="3.29256" rx="1.64628" fill="white"/>
<rect x="34.5711" y="33.3336" width="3.29256" height="3.29256" rx="1.64628" fill="white"/>
<rect x="55.1496" y="53.9121" width="18.1091" height="3.29256" rx="1.64628" fill="white"/>
<rect x="55.1496" y="12.7551" width="18.9322" height="3.29256" rx="1.64628" fill="white"/>
<rect x="9.87689" y="56.3815" width="15.6396" height="1.64628" rx="0.823139" fill="white"/>
</svg>
