<svg width="90" height="90" viewBox="0 0 90 90" fill="none" xmlns="http://www.w3.org/2000/svg">
<path d="M81.4907 47.4495H58.4428C56.1698 47.4495 54.3271 45.6069 54.3271 43.3338V9.69133V7.1157C54.3271 4.84266 56.1698 3 58.4428 3H81.4907C83.7638 3 85.6064 4.84266 85.6064 7.1157V9.69133V43.3338C85.6064 45.6069 83.7638 47.4495 81.4907 47.4495Z" fill="#495BFF"/>
<path d="M42.8032 47.4494H4.1157C1.84266 47.4494 0 45.6068 0 43.3337V36.5499V31.8098C0 29.5368 1.84266 27.6941 4.11569 27.6941H42.8032C45.0763 27.6941 46.9189 29.5367 46.9189 31.8098V36.5499V43.3337C46.9189 45.6068 45.0763 47.4494 42.8032 47.4494Z" fill="#FD514D"/>
<path d="M34.5722 42.5107H12.3475C11.4382 42.5107 10.7012 41.7737 10.7012 40.8644V37.061V34.2793C10.7012 33.3701 11.4382 32.6331 12.3474 32.6331H34.5722C35.4814 32.6331 36.2185 33.3701 36.2185 34.2793V37.061V40.8644C36.2185 41.7737 35.4814 42.5107 34.5722 42.5107Z" fill="white"/>
<path d="M84.7833 85.3138H4.1157C2.75187 85.3138 1.64628 84.2082 1.64628 82.8444V59.6903V58.9734C1.64628 57.6095 2.75188 56.5039 4.11571 56.5039H84.7833C86.1472 56.5039 87.2528 57.6095 87.2528 58.9734V59.6903V82.8444C87.2528 84.2082 86.1472 85.3138 84.7833 85.3138Z" stroke="#373946" stroke-width="3.29256"/>
<path d="M0 10.4082C0 11.3175 0.737065 12.0545 1.64628 12.0545H32.507C33.4162 12.0545 34.1532 11.3175 34.1532 10.4082C34.1532 9.49903 33.4162 8.76196 32.507 8.76196H1.64628C0.737064 8.76196 0 9.49903 0 10.4082Z" fill="#373946"/>
<path d="M0 17.7059C0 18.6151 0.737065 19.3522 1.64628 19.3522H19.7483C20.6575 19.3522 21.3946 18.6151 21.3946 17.7059C21.3946 16.7967 20.6575 16.0596 19.7483 16.0596H1.64628C0.737064 16.0596 0 16.7967 0 17.7059Z" fill="#373946"/>
<path fill-rule="evenodd" clip-rule="evenodd" d="M23.7718 76.8679C24.0502 77.559 23.7216 78.3474 23.0379 78.6288C22.3541 78.9102 21.5742 78.5781 21.2958 77.8869L19.5262 73.4942H14.2805L12.4463 77.8953C12.1597 78.583 11.3759 78.9056 10.6955 78.6159C10.0152 78.3262 9.69603 77.5338 9.98263 76.8462L15.6888 63.1547C15.7773 62.9424 15.9131 62.7649 16.0787 62.6295C16.1944 62.5203 16.3314 62.4302 16.4868 62.3662C17.1705 62.0848 17.9505 62.4169 18.2289 63.1081L23.7718 76.8679ZM15.4068 70.7919H18.4377L16.948 67.0939L15.4068 70.7919Z" fill="#373946"/>
<path d="M32.1025 67.2049C32.1025 68.1141 32.8396 68.8512 33.7488 68.8512H64.6095C65.5187 68.8512 66.2558 68.1141 66.2558 67.2049C66.2558 66.2957 65.5187 65.5586 64.6095 65.5586H33.7488C32.8396 65.5586 32.1025 66.2957 32.1025 67.2049Z" fill="#373946"/>
<path d="M32.1025 74.5026C32.1025 75.4118 32.8396 76.1488 33.7488 76.1488H51.8509C52.7601 76.1488 53.4971 75.4118 53.4971 74.5026C53.4971 73.5933 52.7601 72.8563 51.8509 72.8563H33.7488C32.8396 72.8563 32.1025 73.5933 32.1025 74.5026Z" fill="#373946"/>
<rect x="59.2661" y="8.76196" width="3.29256" height="3.29256" rx="1.64628" fill="white"/>
<rect x="59.2661" y="16.1702" width="3.29256" height="3.29256" rx="1.64628" fill="white"/>
<rect x="59.2661" y="23.5784" width="3.29256" height="3.29256" rx="1.64628" fill="white"/>
<rect x="59.2661" y="30.9868" width="3.29256" height="3.29256" rx="1.64628" fill="white"/>
<rect x="59.2661" y="38.395" width="3.29256" height="3.29256" rx="1.64628" fill="white"/>
<rect x="66.6743" y="8.76196" width="13.1702" height="3.29256" rx="1.64628" fill="white"/>
<rect x="66.6743" y="16.1702" width="13.1702" height="3.29256" rx="1.64628" fill="white"/>
<rect x="66.6743" y="23.5784" width="13.1702" height="3.29256" rx="1.64628" fill="white"/>
<rect x="66.6743" y="30.9868" width="13.1702" height="3.29256" rx="1.64628" fill="white"/>
<rect x="66.6743" y="38.395" width="13.1702" height="3.29256" rx="1.64628" fill="white"/>
<rect x="17.2861" y="35.9255" width="13.1702" height="3.29256" rx="1.64628" fill="#FD514D"/>
</svg>
