<svg width="90" height="90" viewBox="0 0 90 90" fill="none" xmlns="http://www.w3.org/2000/svg">
<rect x="42.8022" y="18.9998" width="37.0413" height="13.1702" rx="4.1157" fill="#495BFF"/>
<rect x="47.7412" y="23.9387" width="3.29256" height="3.29256" rx="1.64628" fill="white"/>
<path d="M31.2793 77.4429H4.93884C3.12041 77.4429 1.64628 75.9688 1.64628 74.1504V21.7527V16.5306C1.64628 14.7122 3.1204 13.2381 4.93883 13.2381H31.2793C33.0977 13.2381 34.5718 14.7122 34.5718 16.5306V21.7527V74.1504C34.5718 75.9688 33.0977 77.4429 31.2793 77.4429Z" stroke="#373946" stroke-width="3.29256"/>
<path d="M13.4971 15.7073C13.4968 15.7073 13.4966 15.7073 13.4963 15.7073H22.7205C22.7203 15.7073 22.72 15.7073 22.7198 15.7073H13.4971Z" stroke="#373946" stroke-width="3.29256"/>
<rect x="42.8022" y="60.1567" width="37.0413" height="13.1702" rx="4.1157" fill="#495BFF"/>
<rect x="47.7412" y="65.0957" width="3.29256" height="3.29256" rx="1.64628" fill="white"/>
<rect x="29.6323" y="39.5784" width="37.0413" height="13.1702" rx="4.1157" fill="#FD514D"/>
<path d="M8.23047 41.2246L18.1081 41.2246" stroke="#373946" stroke-width="3.29256" stroke-linecap="round"/>
<rect x="6.58398" y="45.3403" width="19.7553" height="3.29256" rx="1.64628" fill="#373946"/>
<rect x="6.58398" y="51.9255" width="23.0479" height="20.5785" rx="1.64628" fill="#373946"/>
<rect x="9.87695" y="63.4495" width="10.7008" height="2.46942" rx="1.23471" fill="white"/>
<rect x="41.9795" y="44.5171" width="18.9322" height="3.29256" rx="1.64628" fill="white"/>
<rect x="34.5713" y="44.5171" width="3.29256" height="3.29256" rx="1.64628" fill="white"/>
<rect x="55.1494" y="65.0957" width="18.1091" height="3.29256" rx="1.64628" fill="white"/>
<rect x="55.1494" y="23.9387" width="18.9322" height="3.29256" rx="1.64628" fill="white"/>
<rect x="9.87695" y="67.5652" width="15.6396" height="1.64628" rx="0.823139" fill="white"/>
</svg>
