<svg width="90" height="90" viewBox="0 0 90 90" fill="none" xmlns="http://www.w3.org/2000/svg">
<path d="M32.1023 33.871H10.7007C8.42762 33.871 6.58496 32.0283 6.58496 29.7553V24.7881V21.5239C6.58496 19.2509 8.42762 17.4082 10.7007 17.4082H32.1023C34.3753 17.4082 36.218 19.2509 36.218 21.5239V24.7881V29.7553C36.218 32.0283 34.3753 33.871 32.1023 33.871Z" fill="#FD514D"/>
<path d="M1.64626 75.8511L1.64626 14.1157C1.64626 12.7519 2.75186 11.6463 4.11568 11.6463L36.3597 11.6463L38.6875 11.6463C40.0513 11.6463 41.1569 12.7519 41.1569 14.1157L41.1569 75.8511C41.1569 77.215 40.0513 78.3206 38.6875 78.3206L36.3597 78.3206L4.11568 78.3206C2.75186 78.3206 1.64626 77.215 1.64626 75.8511Z" stroke="#373946" stroke-width="3.29256"/>
<path d="M47.742 75.8511L47.742 14.1157C47.742 12.7519 48.8476 11.6463 50.2114 11.6463L82.4554 11.6463L84.7832 11.6463C86.147 11.6463 87.2526 12.7519 87.2526 14.1157L87.2526 75.8511C87.2526 77.215 86.147 78.3206 84.7832 78.3206L82.4554 78.3206L50.2114 78.3206C48.8476 78.3206 47.742 77.215 47.742 75.8511Z" stroke="#495BFF" stroke-width="3.29256"/>
<path d="M52.6812 17.4082C52.6812 18.3175 53.4182 19.0545 54.3274 19.0545H80.2493C81.1585 19.0545 81.8956 18.3175 81.8956 17.4082C81.8956 16.499 81.1585 15.762 80.2493 15.762H54.3274C53.4182 15.762 52.6812 16.499 52.6812 17.4082Z" fill="#495BFF"/>
<path d="M6.58496 47.8643C6.58496 48.7735 7.32203 49.5106 8.23124 49.5106H34.1531C35.0623 49.5106 35.7994 48.7735 35.7994 47.8643C35.7994 46.9551 35.0623 46.218 34.1531 46.218H8.23124C7.32203 46.218 6.58496 46.9551 6.58496 47.8643Z" fill="#373946"/>
<path d="M6.58594 41.2791C6.58594 42.1883 7.323 42.9254 8.23222 42.9254H25.9227C26.8319 42.9254 27.569 42.1883 27.569 41.2791C27.569 40.3699 26.8319 39.6328 25.9227 39.6328H8.23222C7.323 39.6328 6.58594 40.3699 6.58594 41.2791Z" fill="#373946"/>
<path d="M13 25.7693C13 26.6785 13.7371 27.4156 14.6463 27.4156H28.3367C29.246 27.4156 29.983 26.6785 29.983 25.7693C29.983 24.8601 29.246 24.123 28.3367 24.123H14.6463C13.7371 24.123 13 24.8601 13 25.7693Z" fill="white"/>
<path d="M52.6812 30.5784C52.6812 31.4876 53.4182 32.2247 54.3274 32.2247H78.603C79.5122 32.2247 80.2493 31.4876 80.2493 30.5784C80.2493 29.6692 79.5122 28.9321 78.603 28.9321H54.3274C53.4182 28.9321 52.6812 29.6692 52.6812 30.5784Z" fill="#495BFF"/>
<path d="M52.6812 49.5108C52.6812 50.42 53.4182 51.1571 54.3274 51.1571H75.3105C76.2197 51.1571 76.9567 50.42 76.9567 49.5108C76.9567 48.6016 76.2197 47.8645 75.3105 47.8645H54.3274C53.4182 47.8645 52.6812 48.6016 52.6812 49.5108Z" fill="#495BFF"/>
<path d="M52.6812 62.6809C52.6812 63.5902 53.4182 64.3272 54.3274 64.3272H72.0179C72.9271 64.3272 73.6642 63.5902 73.6642 62.6809C73.6642 61.7717 72.9271 61.0347 72.0179 61.0347H54.3274C53.4182 61.0347 52.6812 61.7717 52.6812 62.6809Z" fill="#495BFF"/>
<path d="M52.6812 23.9934C52.6812 24.9027 53.4182 25.6397 54.3274 25.6397H76.5452C77.4544 25.6397 78.1914 24.9027 78.1914 23.9934C78.1914 23.0842 77.4544 22.3472 76.5452 22.3472H54.3274C53.4182 22.3472 52.6812 23.0842 52.6812 23.9934Z" fill="#495BFF"/>
<path d="M6.58496 54.4495C6.58496 55.3587 7.32203 56.0958 8.23124 56.0958H30.449C31.3582 56.0958 32.0952 55.3587 32.0952 54.4495C32.0952 53.5403 31.3582 52.8032 30.449 52.8032H8.23124C7.32202 52.8032 6.58496 53.5403 6.58496 54.4495Z" fill="#373946"/>
<path d="M53.0215 44.3428C53.6644 44.9857 54.7068 44.9857 55.3497 44.3428L62.3293 37.3632C62.9722 36.7203 62.9722 35.6779 62.3293 35.035C61.6864 34.3921 60.644 34.3921 60.0011 35.035L53.0215 42.0146C52.3786 42.6575 52.3786 43.6999 53.0215 44.3428Z" fill="#495BFF"/>
<path d="M64.5928 41.1422C64.5764 41.127 64.5602 41.1115 64.5442 41.0955C63.9013 40.4526 63.9013 39.4102 64.5442 38.7673L67.4495 35.8621C68.0924 35.2192 69.1347 35.2192 69.7776 35.8621C70.4206 36.505 70.4206 37.5473 69.7776 38.1903L68.0374 39.9305L69.779 41.672C70.4219 42.315 70.4219 43.3573 69.779 44.0002C69.1361 44.6431 68.0937 44.6431 67.4508 44.0002L64.5928 41.1422Z" fill="#495BFF"/>
<path d="M78.9277 41.1422C78.9441 41.127 78.9604 41.1115 78.9763 41.0955C79.6192 40.4526 79.6192 39.4102 78.9763 38.7673L76.071 35.8621C75.4281 35.2192 74.3858 35.2192 73.7429 35.8621C73.0999 36.505 73.0999 37.5473 73.7429 38.1903L75.4831 39.9305L73.7415 41.672C73.0986 42.315 73.0986 43.3573 73.7415 44.0002C74.3844 44.6431 75.4268 44.6431 76.0697 44.0002L78.9277 41.1422Z" fill="#495BFF"/>
<path d="M52.6812 56.0957C52.6812 57.005 53.4182 57.742 54.3274 57.742H79.0146C79.9238 57.742 80.6609 57.005 80.6609 56.0957C80.6609 55.1865 79.9238 54.4495 79.0146 54.4495H54.3274C53.4182 54.4495 52.6812 55.1865 52.6812 56.0957Z" fill="#495BFF"/>
<path d="M52.6812 69.2662C52.6812 70.1754 53.4182 70.9124 54.3274 70.9124H80.6609C81.5701 70.9124 82.3071 70.1754 82.3071 69.2662C82.3071 68.3569 81.5701 67.6199 80.6609 67.6199H54.3274C53.4182 67.6199 52.6812 68.3569 52.6812 69.2662Z" fill="#495BFF"/>
<rect x="6.58496" y="61.0347" width="13.2685" height="3.98055" rx="1.99028" fill="#FD514D"/>
</svg>
