<svg width="52" height="51" viewBox="0 0 52 51" fill="none" xmlns="http://www.w3.org/2000/svg">
<path d="M0.5 12.75C0.5 5.70837 6.20837 0 13.25 0H38.75C45.7916 0 51.5 5.70837 51.5 12.75V38.25C51.5 45.2916 45.7916 51 38.75 51H13.25C6.20837 51 0.5 45.2916 0.5 38.25V12.75Z" fill="#373946"/>
<path d="M38.0343 19.7259C38.0457 19.9759 38.052 20.2279 38.052 20.48C38.052 28.1541 32.0685 37 21.121 37C17.7606 37 14.6325 36.0416 12 34.3932C12.4655 34.447 12.9393 34.4745 13.4193 34.4745C16.208 34.4745 18.7728 33.5456 20.8097 31.9886C18.2063 31.9419 16.0081 30.2629 15.251 27.9549C15.6134 28.022 15.9873 28.0596 16.3694 28.0596C16.912 28.0596 17.4389 27.9905 17.9377 27.8573C15.2156 27.3248 13.1652 24.9781 13.1652 22.163C13.1652 22.1386 13.1652 22.1132 13.1663 22.0898C13.9681 22.5237 14.8855 22.786 15.8602 22.8154C14.2649 21.7758 13.2142 19.9972 13.2142 17.9829C13.2142 16.9178 13.5068 15.9198 14.0191 15.062C16.9526 18.5764 21.3386 20.8875 26.2829 21.1314C26.1808 20.7056 26.1298 20.2635 26.1298 19.8072C26.1298 16.6007 28.7935 14 32.0789 14C33.7909 14 35.3352 14.7053 36.4223 15.8334C37.7792 15.5732 39.0496 15.0915 40.2023 14.4238C39.7546 15.7806 38.8142 16.9178 37.5824 17.6374C38.7872 17.4971 39.9368 17.1861 41 16.7237C40.2065 17.8864 39.1975 18.9098 38.0343 19.7259Z" fill="white"/>
</svg>
