<svg width="89" height="84" viewBox="0 0 89 84" fill="none" xmlns="http://www.w3.org/2000/svg">
<path d="M81.4908 44.4495H58.4429C56.1699 44.4495 54.3272 42.6069 54.3272 40.3338V6.69133V4.1157C54.3272 1.84266 56.1699 0 58.4429 0H81.4908C83.7638 0 85.6065 1.84266 85.6065 4.1157V6.69133V40.3338C85.6065 42.6069 83.7638 44.4495 81.4908 44.4495Z" fill="#4B47FF"/>
<path d="M42.8032 44.4495H4.1157C1.84266 44.4495 0 42.6069 0 40.3338V33.55V28.8099C0 26.5368 1.84266 24.6942 4.11569 24.6942H42.8032C45.0763 24.6942 46.9189 26.5368 46.9189 28.8099V33.55V40.3338C46.9189 42.6069 45.0763 44.4495 42.8032 44.4495Z" fill="#373946"/>
<path d="M34.5718 39.5107H12.3471C11.4379 39.5107 10.7008 38.7736 10.7008 37.8644V34.0609V31.2793C10.7008 30.3701 11.4379 29.633 12.3471 29.633H34.5718C35.4811 29.633 36.2181 30.3701 36.2181 31.2793V34.0609V37.8644C36.2181 38.7736 35.4811 39.5107 34.5718 39.5107Z" fill="white"/>
<path d="M84.7833 82.3139H4.1157C2.75187 82.3139 1.64628 81.2083 1.64628 79.8445V56.6904V55.9735C1.64628 54.6097 2.75188 53.5041 4.11571 53.5041H84.7833C86.1472 53.5041 87.2528 54.6096 87.2528 55.9735V56.6904V79.8445C87.2528 81.2083 86.1472 82.3139 84.7833 82.3139Z" stroke="#373946" stroke-width="3.29256"/>
<path d="M0 7.40825C0 8.31747 0.737065 9.05453 1.64628 9.05453H32.507C33.4162 9.05453 34.1532 8.31747 34.1532 7.40825C34.1532 6.49904 33.4162 5.76197 32.507 5.76197H1.64628C0.737064 5.76197 0 6.49904 0 7.40825Z" fill="#373946"/>
<path d="M0 14.7059C0 15.6152 0.737065 16.3522 1.64628 16.3522H19.7483C20.6575 16.3522 21.3946 15.6152 21.3946 14.7059C21.3946 13.7967 20.6575 13.0597 19.7483 13.0597H1.64628C0.737064 13.0597 0 13.7967 0 14.7059Z" fill="#373946"/>
<path fill-rule="evenodd" clip-rule="evenodd" d="M23.772 73.8678C24.0504 74.5589 23.7218 75.3473 23.0381 75.6287C22.3544 75.9101 21.5744 75.578 21.296 74.8869L19.5265 70.4941H14.2808L12.4465 74.8952C12.1599 75.5829 11.3761 75.9055 10.6958 75.6158C10.0154 75.3261 9.69626 74.5338 9.98286 73.8461L15.689 60.1546C15.7775 59.9423 15.9133 59.7648 16.0789 59.6294C16.1947 59.5202 16.3317 59.4301 16.487 59.3661C17.1708 59.0847 17.9507 59.4169 18.2291 60.108L23.772 73.8678ZM15.407 67.7918H18.4379L16.9482 64.0938L15.407 67.7918Z" fill="#373946"/>
<path d="M32.1024 64.2049C32.1024 65.1141 32.8395 65.8511 33.7487 65.8511H64.6094C65.5186 65.8511 66.2557 65.1141 66.2557 64.2049C66.2557 63.2956 65.5186 62.5586 64.6094 62.5586H33.7487C32.8395 62.5586 32.1024 63.2956 32.1024 64.2049Z" fill="#373946"/>
<path d="M32.1024 71.5025C32.1024 72.4118 32.8395 73.1488 33.7487 73.1488H51.8507C52.76 73.1488 53.497 72.4118 53.497 71.5025C53.497 70.5933 52.76 69.8563 51.8507 69.8563H33.7487C32.8395 69.8563 32.1024 70.5933 32.1024 71.5025Z" fill="#373946"/>
<rect x="59.266" y="5.76197" width="3.29256" height="3.29256" rx="1.64628" fill="white"/>
<rect x="59.266" y="13.1702" width="3.29256" height="3.29256" rx="1.64628" fill="white"/>
<rect x="59.266" y="20.5785" width="3.29256" height="3.29256" rx="1.64628" fill="white"/>
<rect x="59.266" y="27.9867" width="3.29256" height="3.29256" rx="1.64628" fill="white"/>
<rect x="59.266" y="35.395" width="3.29256" height="3.29256" rx="1.64628" fill="white"/>
<rect x="66.6743" y="5.76197" width="13.1702" height="3.29256" rx="1.64628" fill="white"/>
<rect x="66.6743" y="13.1702" width="13.1702" height="3.29256" rx="1.64628" fill="white"/>
<rect x="66.6743" y="20.5785" width="13.1702" height="3.29256" rx="1.64628" fill="white"/>
<rect x="66.6743" y="27.9867" width="13.1702" height="3.29256" rx="1.64628" fill="white"/>
<rect x="66.6743" y="35.395" width="13.1702" height="3.29256" rx="1.64628" fill="white"/>
<rect x="17.2859" y="32.9256" width="13.1702" height="3.29256" rx="1.64628" fill="#373946"/>
</svg>
