<svg width="52" height="51" viewBox="0 0 52 51" fill="none" xmlns="http://www.w3.org/2000/svg">
<rect x="0.75" width="51" height="51" rx="12.75" fill="#373946"/>
<path d="M28.6138 26C28.6138 30.9706 24.447 35 19.3069 35C14.1668 35 10 30.9706 10 26C10 21.0294 14.1668 17 19.3069 17C24.4469 17 28.6138 21.0294 28.6138 26Z" fill="white"/>
<path d="M38.8237 26C38.8237 30.6789 36.7402 34.4719 34.1702 34.4719C31.6002 34.4719 29.5168 30.6789 29.5168 26C29.5168 21.3211 31.6002 17.5281 34.1702 17.5281C36.7403 17.5281 38.8237 21.3211 38.8237 26Z" fill="white"/>
<path d="M43 26C43 30.1921 42.2672 33.5905 41.3633 33.5905C40.4594 33.5905 39.7267 30.1921 39.7267 26C39.7267 21.8079 40.4594 18.4095 41.3633 18.4095C42.2672 18.4095 43 21.8079 43 26Z" fill="white"/>
</svg>
