<svg width="89" height="71" viewBox="0 0 89 71" fill="none" xmlns="http://www.w3.org/2000/svg">
<path d="M32.1024 24.748H10.7008C8.42774 24.748 6.58508 22.9053 6.58508 20.6323V15.6651V12.4009C6.58508 10.1279 8.42774 8.28521 10.7008 8.28521H32.1024C34.3754 8.28521 36.2181 10.1279 36.2181 12.4009V15.6651V20.6323C36.2181 22.9053 34.3754 24.748 32.1024 24.748Z" fill="#373946"/>
<path d="M1.64626 66.7281L1.64626 4.99265C1.64626 3.62883 2.75186 2.52323 4.11568 2.52323L36.3597 2.52323L38.6875 2.52323C40.0513 2.52323 41.1569 3.62883 41.1569 4.99265L41.1569 66.7281C41.1569 68.0919 40.0513 69.1975 38.6875 69.1975L36.3597 69.1975L4.11568 69.1975C2.75186 69.1975 1.64626 68.0919 1.64626 66.7281Z" stroke="#373946" stroke-width="3.29256"/>
<path d="M47.7421 66.7281L47.7421 4.99265C47.7421 3.62883 48.8477 2.52323 50.2115 2.52323L82.4555 2.52323L84.7834 2.52323C86.1472 2.52323 87.2528 3.62883 87.2528 4.99265L87.2528 66.7281C87.2528 68.0919 86.1472 69.1975 84.7833 69.1975L82.4555 69.1975L50.2115 69.1975C48.8477 69.1975 47.7421 68.0919 47.7421 66.7281Z" stroke="#4B47FF" stroke-width="3.29256"/>
<path d="M52.6809 8.28521C52.6809 9.19442 53.418 9.93149 54.3272 9.93149H80.249C81.1583 9.93149 81.8953 9.19442 81.8953 8.28521C81.8953 7.376 81.1583 6.63893 80.249 6.63893H54.3272C53.418 6.63893 52.6809 7.376 52.6809 8.28521Z" fill="#4B47FF"/>
<path d="M6.58508 38.7414C6.58508 39.6506 7.32215 40.3876 8.23136 40.3876H34.1532C35.0624 40.3876 35.7995 39.6506 35.7995 38.7414C35.7995 37.8321 35.0624 37.0951 34.1532 37.0951H8.23136C7.32215 37.0951 6.58508 37.8321 6.58508 38.7414Z" fill="#373946"/>
<path d="M6.58594 32.156C6.58594 33.0653 7.323 33.8023 8.23222 33.8023H25.9227C26.8319 33.8023 27.569 33.0653 27.569 32.156C27.569 31.2468 26.8319 30.5098 25.9227 30.5098H8.23222C7.323 30.5098 6.58594 31.2468 6.58594 32.156Z" fill="#373946"/>
<path d="M13 16.6463C13 17.5555 13.7371 18.2926 14.6463 18.2926H28.3367C29.246 18.2926 29.983 17.5555 29.983 16.6463C29.983 15.7371 29.246 15 28.3367 15H14.6463C13.7371 15 13 15.7371 13 16.6463Z" fill="white"/>
<path d="M52.6809 21.4554C52.6809 22.3647 53.418 23.1017 54.3272 23.1017H78.6028C79.512 23.1017 80.249 22.3647 80.249 21.4554C80.249 20.5462 79.512 19.8092 78.6028 19.8092H54.3272C53.418 19.8092 52.6809 20.5462 52.6809 21.4554Z" fill="#4B47FF"/>
<path d="M52.6809 40.3876C52.6809 41.2969 53.418 42.0339 54.3272 42.0339H75.3102C76.2194 42.0339 76.9565 41.2969 76.9565 40.3876C76.9565 39.4784 76.2194 38.7414 75.3102 38.7414H54.3272C53.418 38.7414 52.6809 39.4784 52.6809 40.3876Z" fill="#4B47FF"/>
<path d="M52.6809 53.5579C52.6809 54.4671 53.418 55.2041 54.3272 55.2041H72.0177C72.9269 55.2041 73.6639 54.4671 73.6639 53.5579C73.6639 52.6487 72.9269 51.9116 72.0177 51.9116H54.3272C53.418 51.9116 52.6809 52.6487 52.6809 53.5579Z" fill="#4B47FF"/>
<path d="M52.6809 14.8703C52.6809 15.7795 53.418 16.5166 54.3272 16.5166H76.5449C77.4541 16.5166 78.1912 15.7795 78.1912 14.8703C78.1912 13.9611 77.4541 13.224 76.5449 13.224H54.3272C53.418 13.224 52.6809 13.9611 52.6809 14.8703Z" fill="#4B47FF"/>
<path d="M6.58508 45.3265C6.58508 46.2357 7.32215 46.9728 8.23136 46.9728H30.4491C31.3583 46.9728 32.0954 46.2357 32.0954 45.3265C32.0954 44.4173 31.3583 43.6802 30.4491 43.6802H8.23136C7.32215 43.6802 6.58508 44.4173 6.58508 45.3265Z" fill="#373946"/>
<path d="M53.0219 35.2198C53.6648 35.8627 54.7072 35.8627 55.3501 35.2198L62.3297 28.2402C62.9726 27.5973 62.9726 26.555 62.3297 25.912C61.6868 25.2691 60.6444 25.2691 60.0015 25.912L53.0219 32.8916C52.379 33.5346 52.379 34.5769 53.0219 35.2198Z" fill="#4B47FF"/>
<path d="M64.5926 32.0191C64.5761 32.004 64.5599 31.9884 64.544 31.9725C63.901 31.3295 63.901 30.2872 64.544 29.6443L67.4492 26.739C68.0921 26.0961 69.1345 26.0961 69.7774 26.739C70.4203 27.3819 70.4203 28.4243 69.7774 29.0672L68.0372 30.8074L69.7788 32.549C70.4217 33.1919 70.4217 34.2343 69.7788 34.8772C69.1359 35.5201 68.0935 35.5201 67.4506 34.8772L64.5926 32.0191Z" fill="#4B47FF"/>
<path d="M78.9279 32.0191C78.9443 32.004 78.9605 31.9884 78.9765 31.9725C79.6194 31.3295 79.6194 30.2872 78.9765 29.6443L76.0712 26.739C75.4283 26.0961 74.386 26.0961 73.743 26.739C73.1001 27.3819 73.1001 28.4243 73.743 29.0672L75.4833 30.8074L73.7417 32.549C73.0988 33.1919 73.0988 34.2343 73.7417 34.8772C74.3846 35.5201 75.427 35.5201 76.0699 34.8772L78.9279 32.0191Z" fill="#4B47FF"/>
<path d="M52.6809 46.9728C52.6809 47.882 53.418 48.619 54.3272 48.619H79.0143C79.9235 48.619 80.6606 47.882 80.6606 46.9728C80.6606 46.0635 79.9236 45.3265 79.0143 45.3265H54.3272C53.418 45.3265 52.6809 46.0635 52.6809 46.9728Z" fill="#4B47FF"/>
<path d="M52.6809 60.143C52.6809 61.0522 53.418 61.7893 54.3272 61.7893H80.6606C81.5698 61.7893 82.3069 61.0522 82.3069 60.143C82.3069 59.2338 81.5698 58.4967 80.6606 58.4967H54.3272C53.418 58.4967 52.6809 59.2338 52.6809 60.143Z" fill="#4B47FF"/>
<rect x="6.58508" y="51.9116" width="13.2685" height="3.98055" rx="1.99028" fill="#4B47FF"/>
</svg>
