<svg width="100" height="100" viewBox="0 0 100 100" fill="none" xmlns="http://www.w3.org/2000/svg">
<g filter="url(#filter0_b_726_78)">
<circle cx="50" cy="49.9998" r="49" transform="rotate(15 50 49.9998)" fill="white" fill-opacity="0.2"/>
<circle cx="50" cy="49.9998" r="48.5" transform="rotate(15 50 49.9998)" stroke="#F39682"/>
</g>
<rect x="66.09" y="4.61792" width="1" height="20.0474" transform="rotate(19.9063 66.09 4.61792)" fill="#F39682"/>
<rect x="39.9599" y="76.3206" width="1" height="20.0474" transform="rotate(22.1919 39.9599 76.3206)" fill="#F39682"/>
<path d="M67.3099 18.7574L70.9811 14.3037L71.8159 15.0106L71.3777 15.7068C71.7073 15.5996 72.0418 15.578 72.3813 15.6418C72.7266 15.7106 73.0533 15.8754 73.3611 16.136C74.0597 16.7276 74.3158 17.417 74.1292 18.2043C74.5012 18.0823 74.8821 18.0592 75.2719 18.1352C75.6676 18.2161 76.0224 18.3894 76.3361 18.6551C76.8867 19.1213 77.1808 19.6549 77.2182 20.2558C77.2557 20.8567 77.0006 21.4894 76.4528 22.1539L74.3434 24.713L73.402 23.9159L75.4301 21.4556C76.1406 20.5936 76.1703 19.8869 75.519 19.3354C75.1875 19.0547 74.8115 18.9498 74.3911 19.0207C73.9767 19.0967 73.577 19.3681 73.1921 19.8351L71.2973 22.1337L70.3559 21.3367L72.384 18.8764C73.0945 18.0143 73.1212 17.3051 72.4641 16.7487C72.1384 16.4729 71.7654 16.3706 71.3451 16.4415C70.9306 16.5175 70.5309 16.7889 70.146 17.2558L68.2512 19.5545L67.3099 18.7574Z" fill="#F39682"/>
<path d="M77.6102 28.5872C77.2697 28.1542 77.0569 27.6829 76.9718 27.1733C76.8973 26.6648 76.9514 26.1631 77.1342 25.6682C77.3228 25.1684 77.6464 24.721 78.105 24.3262C78.5635 23.9314 79.0424 23.6879 79.5417 23.5956C80.0515 23.5043 80.5372 23.5515 80.9986 23.7371C81.466 23.9177 81.8674 24.2215 82.2031 24.6484C82.5435 25.0814 82.751 25.5521 82.8255 26.0607C82.9106 26.5703 82.8589 27.075 82.6703 27.5749C82.4923 28.0758 82.174 28.5237 81.7154 28.9185C81.2569 29.3133 80.7726 29.5563 80.2628 29.6476C79.7635 29.7399 79.2803 29.6958 78.813 29.5152C78.3515 29.3295 77.9506 29.0202 77.6102 28.5872ZM78.4127 27.8963C78.5949 28.128 78.8185 28.2934 79.0837 28.3924C79.3536 28.4975 79.6453 28.5174 79.9587 28.4521C80.278 28.3817 80.6023 28.2048 80.9315 27.9213C81.2607 27.6379 81.4862 27.3416 81.6078 27.0323C81.7401 26.7241 81.783 26.4213 81.7365 26.1239C81.6947 25.8325 81.5828 25.571 81.4006 25.3393C81.2184 25.1075 80.9923 24.9391 80.7224 24.834C80.4572 24.735 80.165 24.7207 79.8457 24.7911C79.5323 24.8564 79.211 25.0308 78.8817 25.3142C78.5525 25.5976 78.3241 25.8965 78.1966 26.2108C78.075 26.5201 78.035 26.8204 78.0768 27.1117C78.1185 27.403 78.2305 27.6645 78.4127 27.8963Z" fill="#F39682"/>
<path d="M81.2549 34.162L86.3931 31.5329L86.8397 32.5441L85.9083 33.1382C86.3282 33.1495 86.7069 33.269 87.0444 33.4965C87.392 33.7275 87.6693 34.0772 87.8761 34.5456L86.7262 35.1339L86.5899 34.8252C86.452 34.513 86.2764 34.2592 86.0631 34.0638C85.8598 33.872 85.6044 33.7634 85.2969 33.7381C84.9994 33.7163 84.64 33.8132 84.2187 34.0288L81.7532 35.2903L81.2549 34.162Z" fill="#F39682"/>
<path d="M83.8205 42.5679C83.7121 42.0121 83.7359 41.4866 83.8919 40.9914C84.0569 40.502 84.3337 40.0801 84.7222 39.7256C85.1108 39.3712 85.5946 39.1204 86.1736 38.9733C86.76 38.8244 87.2981 38.8115 87.7877 38.9349C88.2789 39.0659 88.6901 39.313 89.0213 39.6764C89.3541 40.0474 89.5761 40.5184 89.6875 41.0895C89.7959 41.6453 89.7661 42.1604 89.5982 42.6346C89.4377 43.1069 89.1768 43.5088 88.8153 43.8404C88.4538 44.172 88.0287 44.3998 87.54 44.524C87.4648 44.5431 87.3813 44.5603 87.2896 44.5756C87.2069 44.5966 87.1122 44.6167 87.0054 44.6358L86.1458 40.2271C85.6118 40.4027 85.2332 40.6867 85.0098 41.079C84.7955 41.4771 84.7299 41.8894 84.813 42.3158C84.8798 42.6584 85.0107 42.9249 85.2056 43.1151C85.4095 43.311 85.6542 43.4327 85.9396 43.48L86.1757 44.6907C85.6197 44.6721 85.1204 44.4793 84.678 44.1122C84.237 43.7527 83.9512 43.238 83.8205 42.5679ZM88.7041 41.3273C88.6254 40.9238 88.4353 40.5965 88.1338 40.3454C87.8398 40.0924 87.4493 39.9918 86.9623 40.0436L87.5859 43.2417C88.0175 43.108 88.3329 42.8641 88.5322 42.5098C88.7314 42.1555 88.7887 41.7614 88.7041 41.3273Z" fill="#F39682"/>
<path d="M82.2575 52.8954L90.5729 53.4184L90.4799 54.52L89.5749 54.5913C89.8302 54.7939 90.0487 55.0641 90.2303 55.4019C90.4119 55.7397 90.4812 56.1637 90.4381 56.6739C90.3911 57.2305 90.218 57.7131 89.9188 58.1217C89.6197 58.5303 89.2316 58.84 88.7545 59.0509C88.2768 59.2696 87.7476 59.3606 87.167 59.3241C86.5863 59.2876 86.078 59.1313 85.6421 58.8552C85.2132 58.5873 84.8852 58.2325 84.6578 57.7908C84.4382 57.3495 84.3523 56.8468 84.3999 56.2825C84.4378 55.8341 84.5605 55.4416 84.7679 55.1049C84.9747 54.776 85.2492 54.5213 85.5914 54.3407L82.1537 54.1245L82.2575 52.8954ZM85.486 56.1409C85.4416 56.6666 85.5831 57.1107 85.9106 57.4732C86.2457 57.8362 86.7037 58.036 87.2843 58.0725C87.6637 58.0964 88.007 58.0403 88.3143 57.9042C88.6216 57.7681 88.8679 57.5699 89.0534 57.3095C89.2466 57.0497 89.3582 56.742 89.3882 56.3864C89.4326 55.8607 89.2872 55.4164 88.9521 55.0534C88.6163 54.6981 88.1619 54.5024 87.5889 54.4664C87.0082 54.4299 86.5219 54.5664 86.1299 54.8759C85.7451 55.1936 85.5304 55.6153 85.486 56.1409Z" fill="#F39682"/>
<path d="M83.4164 62.6799L88.8738 64.5586L88.522 65.6066L87.4544 65.3499C87.7497 65.6648 87.9432 66.0268 88.035 66.4358C88.1317 66.8547 88.0986 67.3068 87.9356 67.7922L86.7143 67.3718L86.8217 67.0519C86.9303 66.7283 86.9728 66.4188 86.9492 66.1236C86.9305 65.8381 86.8186 65.574 86.6137 65.3312C86.4137 65.0983 86.09 64.9048 85.6425 64.7508L83.0238 63.8493L83.4164 62.6799Z" fill="#F39682"/>
<path d="M79.5942 70.5655C79.8846 70.0975 80.2496 69.7446 80.6891 69.5068C81.131 69.28 81.6064 69.1828 82.1155 69.2154C82.6309 69.2523 83.1402 69.4389 83.6432 69.7752C84.1463 70.1115 84.5173 70.5135 84.7564 70.9811C84.9978 71.4596 85.1051 71.9557 85.0783 72.4694C85.058 72.9874 84.9047 73.4772 84.6184 73.9386C84.3279 74.4066 83.9618 74.754 83.5199 74.9809C83.0804 75.2186 82.6029 75.3191 82.0874 75.2822C81.5743 75.2562 81.0662 75.0751 80.5632 74.7388C80.0601 74.4025 79.6879 73.995 79.4465 73.5165C79.2074 73.0489 79.0981 72.5561 79.1184 72.0381C79.1452 71.5244 79.3038 71.0335 79.5942 70.5655ZM80.4745 71.1541C80.319 71.4045 80.2372 71.6762 80.2288 71.9691C80.2163 72.2685 80.2885 72.5639 80.4453 72.8553C80.6086 73.151 80.8708 73.4196 81.2319 73.661C81.5931 73.9025 81.9339 74.0371 82.2543 74.0648C82.5771 74.1034 82.8672 74.0549 83.1248 73.9193C83.3782 73.7903 83.5826 73.6005 83.7381 73.35C83.8935 73.0995 83.9774 72.8246 83.9899 72.5251C83.9982 72.2322 83.9208 71.938 83.7575 71.6423C83.6007 71.3509 83.3417 71.0845 82.9806 70.843C82.6194 70.6016 82.2754 70.4648 81.9485 70.4328C81.6281 70.4051 81.3412 70.4558 81.0878 70.5848C80.8343 70.7138 80.6299 70.9036 80.4745 71.1541Z" fill="#F39682"/>
<path d="M79.5872 81.9623C79.7496 81.7956 79.9323 81.7079 80.1355 81.6992C80.3385 81.7017 80.5139 81.7827 80.6615 81.942C80.8091 82.1013 80.879 82.285 80.871 82.493C80.863 82.7123 80.7777 82.9053 80.6153 83.072C80.4529 83.2387 80.2702 83.3208 80.0672 83.3183C79.864 83.327 79.6886 83.2517 79.541 83.0924C79.3934 82.933 79.3236 82.7437 79.3317 82.5245C79.3396 82.3164 79.4248 82.1291 79.5872 81.9623ZM74.4638 73.7313L75.1756 74.4995L74.8589 74.8246C74.6695 75.0191 74.5737 75.2007 74.5716 75.3694C74.5642 75.5325 74.6502 75.7107 74.8294 75.9042L79.2822 80.7098L78.4215 81.5934L73.9609 76.7793C73.5338 76.3183 73.339 75.8743 73.3763 75.4473C73.4085 75.0146 73.6221 74.5954 74.0172 74.1898L74.4638 73.7313Z" fill="#F39682"/>
<path d="M69.4706 80.8528C69.9453 80.544 70.4295 80.3768 70.9232 80.3512C71.4142 80.3366 71.8752 80.4571 72.3063 80.7125C72.7374 80.9679 73.101 81.355 73.397 81.8739C73.6969 82.3994 73.8595 82.9265 73.8847 83.4552C73.9035 83.9882 73.7942 84.4843 73.557 84.9436C73.3132 85.4071 72.9475 85.7975 72.4598 86.1148C71.9851 86.4236 71.5088 86.5811 71.0307 86.5872C70.5566 86.6001 70.1181 86.488 69.7154 86.2511C69.3128 86.0142 68.9865 85.6767 68.7365 85.2388C68.6981 85.1714 68.6591 85.0952 68.6194 85.0101C68.5771 84.936 68.5323 84.8496 68.485 84.7511L72.25 82.3014C71.9406 81.8374 71.5764 81.5663 71.1571 81.4879C70.7353 81.4205 70.3423 81.5053 69.9781 81.7422C69.6855 81.9326 69.4801 82.1586 69.3619 82.4203C69.2411 82.693 69.1992 82.979 69.2362 83.2783L68.2023 83.951C68.0633 83.3947 68.0984 82.8313 68.3079 82.2607C68.5108 81.6944 68.8984 81.2251 69.4706 80.8528ZM71.9678 85.2291C72.3124 85.0049 72.5565 84.6982 72.7001 84.3092C72.8475 83.9268 72.8294 83.5044 72.6457 83.0418L69.9146 84.8187C70.1571 85.1969 70.4673 85.4201 70.8451 85.4884C71.2229 85.5567 71.5972 85.4703 71.9678 85.2291Z" fill="#F39682"/>
<path d="M60.8163 85.0222C61.3571 84.8542 61.874 84.8275 62.367 84.9421C62.8526 85.059 63.2733 85.2974 63.629 85.6575C63.9793 86.0273 64.2282 86.5016 64.3759 87.0804C64.5237 87.6592 64.5346 88.2034 64.4088 88.7131C64.2775 89.2325 64.0323 89.6818 63.6733 90.0611C63.3069 90.4426 62.8533 90.7174 62.3125 90.8854C61.6309 91.0971 61.0144 91.0939 60.463 90.8758C59.9042 90.6599 59.4795 90.2645 59.1888 89.6896L60.4224 89.3064C60.5751 89.5916 60.7995 89.7815 61.0955 89.8761C61.3915 89.9708 61.7099 89.9652 62.0507 89.8593C62.3396 89.7696 62.5871 89.6115 62.7932 89.3853C63.0013 89.1665 63.1429 88.8913 63.2182 88.5596C63.2954 88.2355 63.2813 87.8667 63.1758 87.4532C63.0703 87.0398 62.907 86.7133 62.6859 86.4737C62.4668 86.2416 62.2158 86.0883 61.9329 86.0139C61.6501 85.9396 61.3642 85.9472 61.0753 86.037C60.7345 86.1428 60.4602 86.3213 60.2524 86.5725C60.0446 86.8236 59.944 87.1185 59.9505 87.4573L58.7169 87.8404C58.6894 87.2 58.862 86.6231 59.2348 86.1098C59.6075 85.5964 60.1347 85.2339 60.8163 85.0222Z" fill="#F39682"/>
<path d="M52.3989 86.5828C52.9646 86.556 53.4161 86.6705 53.7534 86.9262C54.0908 87.1897 54.2648 87.6743 54.2755 88.3802L54.3184 91.2309L55.3064 91.1841L55.322 92.2196L54.334 92.2664L54.205 93.7396L53.124 93.7908L53.1019 92.3248L51.4746 92.4018L51.459 91.3663L53.0863 91.2892L53.0434 88.4386C53.0386 88.1205 52.9694 87.9026 52.8358 87.7847C52.6945 87.675 52.4573 87.628 52.1241 87.6438L51.4616 87.6751L51.4458 86.628L52.3989 86.5828Z" fill="#F39682"/>
<path d="M45.0578 85.7647C45.7724 85.91 46.3248 86.2045 46.715 86.648C47.1052 87.0916 47.2739 87.6088 47.2209 88.1997L46.0007 87.9514C45.9942 87.681 45.8969 87.4276 45.7088 87.1914C45.5191 86.9629 45.238 86.8107 44.8655 86.7349C44.5006 86.6606 44.2185 86.6824 44.0193 86.8002C43.8201 86.918 43.6998 87.0756 43.6582 87.273C43.5975 87.5615 43.6746 87.779 43.8895 87.9257C44.0952 88.0784 44.3945 88.2382 44.7875 88.4052C45.0924 88.5385 45.3925 88.6946 45.6878 88.8734C45.9755 89.0507 46.2042 89.2634 46.374 89.5117C46.5345 89.766 46.5772 90.0716 46.5021 90.4284C46.3983 90.9218 46.1219 91.2931 45.6731 91.5422C45.2227 91.7989 44.6555 91.8577 43.9713 91.7185C43.3403 91.5901 42.8629 91.3347 42.5391 90.9521C42.2077 90.568 42.0661 90.092 42.1143 89.5239L43.2774 89.7605C43.2643 90.0111 43.3384 90.2241 43.4997 90.3994C43.6534 90.5732 43.8861 90.6918 44.1978 90.7552C44.5019 90.8171 44.7511 90.8005 44.9455 90.7055C45.1383 90.618 45.2555 90.4756 45.297 90.2782C45.3386 90.0808 45.2573 89.902 45.0532 89.7418C44.8415 89.5799 44.5552 89.4148 44.1942 89.2464C43.8317 89.0856 43.5028 88.9157 43.2075 88.7369C42.9029 88.5641 42.6742 88.3513 42.5213 88.0986C42.3684 87.8458 42.3351 87.5144 42.4213 87.1045C42.5224 86.5867 42.8141 86.1988 43.2965 85.9407C43.7713 85.681 44.3584 85.6224 45.0578 85.7647Z" fill="#F39682"/>
<path d="M32.0057 82.1784L28.3345 86.6321L27.4997 85.9252L27.9379 85.229C27.6083 85.3362 27.2738 85.3578 26.9343 85.294C26.589 85.2252 26.2624 85.0604 25.9545 84.7998C25.2559 84.2082 24.9999 83.5188 25.1864 82.7315C24.8144 82.8535 24.4335 82.8766 24.0437 82.8006C23.648 82.7197 23.2932 82.5464 22.9795 82.2807C22.4289 81.8145 22.1348 81.2809 22.0974 80.68C22.0599 80.0791 22.3151 79.4464 22.8628 78.7819L24.9723 76.2228L25.9136 77.0199L23.8856 79.4802C23.175 80.3422 23.1453 81.0489 23.7966 81.6004C24.1281 81.8811 24.5041 81.986 24.9245 81.9151C25.3389 81.8391 25.7386 81.5677 26.1235 81.1007L28.0183 78.802L28.9597 79.5991L26.9316 82.0594C26.2211 82.9214 26.1944 83.6307 26.8515 84.1871C27.1772 84.4628 27.5502 84.5652 27.9705 84.4943C28.385 84.4183 28.7847 84.1469 29.1696 83.68L31.0644 81.3813L32.0057 82.1784Z" fill="#F39682"/>
<path d="M21.7055 72.3486C22.0459 72.7816 22.2587 73.2529 22.3439 73.7625C22.4184 74.271 22.3643 74.7727 22.1815 75.2675C21.9928 75.7674 21.6692 76.2148 21.2107 76.6096C20.7521 77.0044 20.2732 77.2479 19.774 77.3402C19.2641 77.4315 18.7784 77.3843 18.317 77.1987C17.8497 77.0181 17.4482 76.7143 17.1126 76.2874C16.7721 75.8544 16.5647 75.3836 16.4902 74.8751C16.405 74.3655 16.4568 73.8608 16.6454 73.3609C16.8234 72.86 17.1416 72.4121 17.6002 72.0173C18.0588 71.6225 18.543 71.3795 19.0529 71.2882C19.5521 71.1959 20.0354 71.24 20.5027 71.4206C20.9641 71.6063 21.3651 71.9156 21.7055 72.3486ZM20.903 73.0395C20.7208 72.8078 20.4971 72.6424 20.232 72.5434C19.962 72.4383 19.6704 72.4184 19.3569 72.4837C19.0376 72.5541 18.7134 72.731 18.3841 73.0144C18.0549 73.2979 17.8295 73.5942 17.7079 73.9035C17.5755 74.2117 17.5327 74.5145 17.5792 74.8119C17.6209 75.1032 17.7329 75.3648 17.9151 75.5965C18.0973 75.8283 18.3233 75.9967 18.5933 76.1018C18.8584 76.2008 19.1506 76.2151 19.4699 76.1447C19.7834 76.0794 20.1047 75.905 20.4339 75.6216C20.7631 75.3381 20.9915 75.0393 21.119 74.725C21.2407 74.4157 21.2806 74.1154 21.2389 73.8241C21.1972 73.5328 21.0852 73.2712 20.903 73.0395Z" fill="#F39682"/>
<path d="M18.0607 66.7738L12.9225 69.4029L12.4758 68.3917L13.4073 67.7976C12.9874 67.7863 12.6087 67.6668 12.2711 67.4393C11.9235 67.2083 11.6463 66.8586 11.4395 66.3902L12.5893 65.8019L12.7257 66.1105C12.8636 66.4228 13.0392 66.6766 13.2525 66.872C13.4557 67.0638 13.7111 67.1723 14.0187 67.1977C14.3162 67.2195 14.6756 67.1226 15.0968 66.907L17.5624 65.6455L18.0607 66.7738Z" fill="#F39682"/>
<path d="M15.4951 58.3679C15.6035 58.9237 15.5797 59.4492 15.4237 59.9444C15.2587 60.4338 14.9819 60.8557 14.5933 61.2102C14.2047 61.5646 13.721 61.8154 13.142 61.9625C12.5555 62.1114 12.0175 62.1243 11.5278 62.0009C11.0367 61.8699 10.6255 61.6228 10.2942 61.2594C9.96149 60.8884 9.73943 60.4174 9.62808 59.8463C9.5197 59.2905 9.54948 58.7754 9.71743 58.3012C9.87786 57.8289 10.1388 57.427 10.5003 57.0954C10.8618 56.7638 11.2869 56.536 11.7756 56.4118C11.8508 56.3927 11.9343 56.3755 12.026 56.3602C12.1087 56.3392 12.2034 56.3191 12.3102 56.3L13.1698 60.7087C13.7037 60.5331 14.0824 60.2491 14.3058 59.8567C14.5201 59.4587 14.5857 59.0464 14.5026 58.62C14.4358 58.2774 14.3049 58.0109 14.11 57.8207C13.9061 57.6248 13.6614 57.5031 13.3759 57.4557L13.1399 56.2451C13.6959 56.2636 14.1951 56.4565 14.6376 56.8236C15.0786 57.183 15.3644 57.6978 15.4951 58.3679ZM10.6115 59.6085C10.6902 60.012 10.8803 60.3393 11.1818 60.5904C11.4757 60.8434 11.8662 60.944 12.3533 60.8922L11.7297 57.6941C11.2981 57.8278 10.9826 58.0717 10.7834 58.426C10.5842 58.7803 10.5269 59.1744 10.6115 59.6085Z" fill="#F39682"/>
<path d="M17.0581 48.0404L8.74268 47.5174L8.83572 46.4158L9.74074 46.3445C9.48543 46.1419 9.26696 45.8717 9.08534 45.5339C8.90371 45.1961 8.83445 44.7721 8.87754 44.2619C8.92455 43.7053 9.09763 43.2227 9.39679 42.8141C9.69594 42.4055 10.084 42.0958 10.5611 41.8849C11.0388 41.6662 11.568 41.5752 12.1487 41.6117C12.7293 41.6482 13.2376 41.8045 13.6736 42.0806C14.1024 42.3485 14.4305 42.7033 14.6578 43.145C14.8774 43.5862 14.9633 44.089 14.9157 44.6533C14.8778 45.1017 14.7551 45.4942 14.5477 45.8308C14.3409 46.1598 14.0664 46.4145 13.7242 46.595L17.1619 46.8113L17.0581 48.0404ZM13.8296 44.7948C13.874 44.2692 13.7325 43.8251 13.405 43.4626C13.0699 43.0995 12.612 42.8998 12.0313 42.8633C11.6519 42.8394 11.3086 42.8955 11.0013 43.0316C10.694 43.1677 10.4477 43.3659 10.2622 43.6263C10.069 43.8861 9.95742 44.1938 9.92739 44.5494C9.88299 45.0751 10.0284 45.5194 10.3635 45.8824C10.6994 46.2377 11.1537 46.4334 11.7267 46.4694C12.3074 46.5059 12.7937 46.3694 13.1857 46.0599C13.5705 45.7422 13.7852 45.3205 13.8296 44.7948Z" fill="#F39682"/>
<path d="M15.8993 38.2559L10.4418 36.3772L10.7936 35.3292L11.8612 35.5859C11.566 35.271 11.3724 34.909 11.2806 34.5C11.1839 34.0811 11.217 33.629 11.38 33.1436L12.6013 33.564L12.4939 33.8839C12.3853 34.2075 12.3428 34.517 12.3664 34.8122C12.3852 35.0976 12.497 35.3618 12.7019 35.6046C12.9019 35.8375 13.2256 36.031 13.6731 36.185L16.2918 37.0865L15.8993 38.2559Z" fill="#F39682"/>
<path d="M19.7214 30.3703C19.431 30.8383 19.0661 31.1912 18.6265 31.429C18.1846 31.6558 17.7092 31.753 17.2002 31.7204C16.6847 31.6835 16.1754 31.4969 15.6724 31.1606C15.1694 30.8243 14.7983 30.4223 14.5592 29.9547C14.3178 29.4762 14.2105 28.9801 14.2373 28.4664C14.2576 27.9484 14.4109 27.4586 14.6973 26.9972C14.9877 26.5292 15.3538 26.1818 15.7957 25.9549C16.2352 25.7172 16.7127 25.6167 17.2282 25.6536C17.7413 25.6795 18.2494 25.8607 18.7524 26.197C19.2555 26.5333 19.6277 26.9407 19.8691 27.4193C20.1082 27.8869 20.2176 28.3797 20.1972 28.8977C20.1705 29.4114 20.0119 29.9023 19.7214 30.3703ZM18.8411 29.7817C18.9966 29.5312 19.0785 29.2596 19.0868 28.9667C19.0993 28.6673 19.0271 28.3718 18.8703 28.0805C18.707 27.7848 18.4448 27.5162 18.0837 27.2748C17.7225 27.0333 17.3817 26.8987 17.0613 26.871C16.7385 26.8324 16.4484 26.8809 16.1908 27.0165C15.9374 27.1455 15.733 27.3353 15.5776 27.5858C15.4221 27.8363 15.3382 28.1112 15.3257 28.4107C15.3174 28.7035 15.3948 28.9978 15.5581 29.2935C15.7149 29.5849 15.9739 29.8513 16.335 30.0927C16.6962 30.3342 17.0402 30.4709 17.3671 30.503C17.6875 30.5307 17.9744 30.48 18.2278 30.351C18.4813 30.222 18.6857 30.0322 18.8411 29.7817Z" fill="#F39682"/>
<path d="M19.7284 18.9734C19.5661 19.1402 19.3833 19.2279 19.1801 19.2366C18.9771 19.2341 18.8018 19.1531 18.6541 18.9938C18.5065 18.8345 18.4366 18.6508 18.4446 18.4428C18.4527 18.2235 18.5379 18.0305 18.7003 17.8638C18.8627 17.6971 19.0454 17.615 19.2484 17.6175C19.4516 17.6088 19.627 17.6841 19.7746 17.8434C19.9222 18.0028 19.992 18.1921 19.9839 18.4113C19.976 18.6194 19.8908 18.8067 19.7284 18.9734ZM24.8518 27.2045L24.14 26.4363L24.4567 26.1112C24.6461 25.9167 24.7419 25.7351 24.744 25.5664C24.7514 25.4033 24.6654 25.2251 24.4862 25.0316L20.0334 20.2259L20.8941 19.3423L25.3547 24.1565C25.7818 24.6175 25.9767 25.0614 25.9393 25.4885C25.9072 25.9212 25.6935 26.3404 25.2984 26.746L24.8518 27.2045Z" fill="#F39682"/>
<path d="M29.8449 20.083C29.3703 20.3918 28.8861 20.559 28.3924 20.5846C27.9014 20.5991 27.4403 20.4787 27.0093 20.2233C26.5782 19.9679 26.2146 19.5808 25.9186 19.0619C25.6187 18.5364 25.4561 18.0092 25.4309 17.4805C25.4121 16.9476 25.5213 16.4515 25.7586 15.9922C26.0024 15.5287 26.3681 15.1383 26.8558 14.821C27.3305 14.5121 27.8068 14.3547 28.2848 14.3486C28.759 14.3357 29.1974 14.4477 29.6001 14.6847C30.0028 14.9216 30.3291 15.259 30.579 15.697C30.6175 15.7644 30.6565 15.8406 30.6962 15.9257C30.7384 15.9998 30.7833 16.0862 30.8306 16.1847L27.0656 18.6344C27.375 19.0984 27.7392 19.3695 28.1584 19.4479C28.5803 19.5153 28.9733 19.4305 29.3374 19.1936C29.6301 19.0032 29.8355 18.7771 29.9536 18.5155C30.0745 18.2428 30.1164 17.9568 30.0793 17.6575L31.1132 16.9848C31.2523 17.5411 31.2171 18.1045 31.0077 18.6751C30.8048 19.2414 30.4172 19.7107 29.8449 20.083ZM27.3478 15.7067C27.0031 15.9309 26.759 16.2375 26.6155 16.6266C26.4681 17.009 26.4862 17.4314 26.6699 17.894L29.401 16.117C29.1585 15.7389 28.8483 15.5157 28.4705 15.4474C28.0927 15.3791 27.7184 15.4655 27.3478 15.7067Z" fill="#F39682"/>
<path d="M38.4993 15.9136C37.9585 16.0816 37.4416 16.1083 36.9486 15.9937C36.463 15.8768 36.0423 15.6384 35.6866 15.2783C35.3363 14.9085 35.0873 14.4342 34.9396 13.8554C34.7919 13.2766 34.781 12.7324 34.9068 12.2227C35.0381 11.7033 35.2833 11.254 35.6422 10.8747C36.0086 10.4932 36.4622 10.2184 37.0031 10.0504C37.6847 9.83871 38.3012 9.84191 38.8526 10.06C39.4114 10.2759 39.8361 10.6713 40.1268 11.2462L38.8932 11.6294C38.7405 11.3442 38.5161 11.1543 38.2201 11.0597C37.9241 10.965 37.6057 10.9706 37.2649 11.0765C36.976 11.1662 36.7285 11.3243 36.5223 11.5505C36.3143 11.7693 36.1726 12.0445 36.0974 12.3762C36.0202 12.7003 36.0343 13.0691 36.1398 13.4825C36.2453 13.896 36.4086 14.2225 36.6297 14.4621C36.8488 14.6942 37.0998 14.8474 37.3827 14.9218C37.6655 14.9962 37.9514 14.9886 38.2403 14.8988C38.5811 14.7929 38.8554 14.6144 39.0632 14.3633C39.2709 14.1122 39.3716 13.8173 39.3651 13.4785L40.5986 13.0954C40.6262 13.7358 40.4535 14.3127 40.0808 14.826C39.708 15.3393 39.1809 15.7019 38.4993 15.9136Z" fill="#F39682"/>
<path d="M46.9167 14.353C46.351 14.3798 45.8995 14.2653 45.5622 14.0096C45.2248 13.7461 45.0508 13.2615 45.0402 12.5556L44.9972 9.70493L44.0092 9.75173L43.9936 8.71619L44.9816 8.66939L45.1107 7.19619L46.1917 7.14499L46.2137 8.61104L47.841 8.53396L47.8566 9.56951L46.2293 9.64658L46.2723 12.4972C46.2771 12.8153 46.3463 13.0332 46.4799 13.1511C46.6211 13.2608 46.8583 13.3078 47.1915 13.292L47.8541 13.2607L47.8699 14.3078L46.9167 14.353Z" fill="#F39682"/>
<path d="M54.2579 15.1711C53.5433 15.0258 52.9909 14.7313 52.6006 14.2877C52.2104 13.8442 52.0418 13.327 52.0948 12.7361L53.3149 12.9843C53.3214 13.2548 53.4187 13.5082 53.6068 13.7443C53.7965 13.9729 54.0777 14.1251 54.4502 14.2009C54.8151 14.2751 55.0971 14.2534 55.2963 14.1356C55.4955 14.0177 55.6159 13.8602 55.6574 13.6628C55.7181 13.3743 55.641 13.1567 55.4261 13.0101C55.2204 12.8574 54.9211 12.6976 54.5282 12.5306C54.2233 12.3973 53.9232 12.2412 53.6278 12.0624C53.3401 11.8851 53.1114 11.6723 52.9417 11.4241C52.7812 11.1698 52.7384 10.8642 52.8135 10.5074C52.9174 10.014 53.1937 9.64268 53.6425 9.39357C54.0929 9.13688 54.6602 9.07813 55.3444 9.21732C55.9753 9.34568 56.4527 9.60113 56.7765 9.98367C57.1079 10.3677 57.2495 10.8438 57.2013 11.4119L56.0382 11.1753C56.0513 10.9246 55.9772 10.7117 55.8159 10.5363C55.6622 10.3626 55.4296 10.244 55.1179 10.1806C54.8138 10.1187 54.5645 10.1353 54.3701 10.2303C54.1773 10.3178 54.0602 10.4602 54.0186 10.6576C53.9771 10.8549 54.0584 11.0338 54.2625 11.194C54.4742 11.3559 54.7605 11.521 55.1214 11.6894C55.4839 11.8502 55.8129 12.0201 56.1082 12.1989C56.4127 12.3717 56.6414 12.5845 56.7943 12.8372C56.9473 13.09 56.9806 13.4214 56.8943 13.8313C56.7933 14.3491 56.5015 14.737 56.0191 14.9951C55.5443 15.2547 54.9572 15.3134 54.2579 15.1711Z" fill="#F39682"/>
<defs>
<filter id="filter0_b_726_78" x="-9.01212" y="-9.01245" width="118.024" height="118.024" filterUnits="userSpaceOnUse" color-interpolation-filters="sRGB">
<feFlood flood-opacity="0" result="BackgroundImageFix"/>
<feGaussianBlur in="BackgroundImage" stdDeviation="5"/>
<feComposite in2="SourceAlpha" operator="in" result="effect1_backgroundBlur_726_78"/>
<feBlend mode="normal" in="SourceGraphic" in2="effect1_backgroundBlur_726_78" result="shape"/>
</filter>
</defs>
</svg>
