<svg width="90" height="90" viewBox="0 0 90 90" fill="none" xmlns="http://www.w3.org/2000/svg">
<path d="M1.64628 17.2096H77.3014V63.8583C77.3014 65.2221 76.1958 66.3277 74.832 66.3277H4.1157C2.75187 66.3277 1.64628 65.2221 1.64628 63.8583V17.2096ZM77.3014 13.9171H1.64628V10.3911C1.64628 9.02727 2.75187 7.92167 4.1157 7.92167H74.832C76.1958 7.92167 77.3014 9.02726 77.3014 10.3911V13.9171Z" stroke="#373946" stroke-width="3.29256"/>
<path d="M11.9424 29.9996C11.9424 30.9088 12.6794 31.6458 13.5887 31.6458H44.4494C45.3586 31.6458 46.0956 30.9088 46.0956 29.9996C46.0956 29.0903 45.3586 28.3533 44.4494 28.3533H13.5887C12.6794 28.3533 11.9424 29.0903 11.9424 29.9996Z" fill="#373946"/>
<path d="M11.9424 37.2972C11.9424 38.2064 12.6794 38.9435 13.5887 38.9435H31.6907C32.5999 38.9435 33.337 38.2064 33.337 37.2972C33.337 36.388 32.5999 35.651 31.6907 35.651H13.5887C12.6794 35.651 11.9424 36.388 11.9424 37.2972Z" fill="#373946"/>
<rect x="11.9424" y="46.0813" width="13.2685" height="3.98055" rx="1.99028" fill="#FD514D"/>
<rect x="42.8037" y="41.7075" width="46.0958" height="42.8032" rx="4.1157" fill="#495BFF"/>
<path d="M51.7471 55.3815C51.7471 56.1143 52.3411 56.7084 53.0739 56.7084H71.9816C72.7144 56.7084 73.3084 56.1143 73.3084 55.3815C73.3084 54.6487 72.7144 54.0547 71.9816 54.0547H53.0739C52.3411 54.0547 51.7471 54.6487 51.7471 55.3815Z" fill="white"/>
<path d="M51.7471 62.6792C51.7471 63.412 52.3411 64.0061 53.0739 64.0061H66.3424C67.0752 64.0061 67.6693 63.412 67.6693 62.6792C67.6693 61.9464 67.0752 61.3524 66.3424 61.3524H53.0739C52.3411 61.3524 51.7471 61.9464 51.7471 62.6792Z" fill="white"/>
<path d="M51.7471 70.6401C51.7471 71.3729 52.3411 71.9669 53.0739 71.9669H78.6158C79.3486 71.9669 79.9427 71.3729 79.9427 70.6401C79.9427 69.9073 79.3486 69.3132 78.6158 69.3132H53.0739C52.3411 69.3132 51.7471 69.9073 51.7471 70.6401Z" fill="white"/>
</svg>
