<svg width="89" height="79" viewBox="0 0 89 79" fill="none" xmlns="http://www.w3.org/2000/svg">
<path d="M74.832 60.7769H4.1157C2.75187 60.7769 1.64628 59.6713 1.64628 58.3075V10.0126V4.84031C1.64628 3.47648 2.75187 2.37089 4.1157 2.37089H74.832C76.1958 2.37089 77.3014 3.47648 77.3014 4.8403V10.0126V58.3075C77.3014 59.6713 76.1958 60.7769 74.832 60.7769Z" stroke="#373946" stroke-width="3.29256"/>
<path d="M11.942 24.4487C11.942 25.3579 12.679 26.095 13.5882 26.095H44.4489C45.3581 26.095 46.0952 25.3579 46.0952 24.4487C46.0952 23.5395 45.3581 22.8024 44.4489 22.8024H13.5882C12.679 22.8024 11.942 23.5395 11.942 24.4487Z" fill="#373946"/>
<path d="M11.942 31.7464C11.942 32.6556 12.679 33.3926 13.5882 33.3926H31.6903C32.5995 33.3926 33.3365 32.6556 33.3365 31.7464C33.3365 30.8372 32.5995 30.1001 31.6903 30.1001H13.5882C12.679 30.1001 11.942 30.8372 11.942 31.7464Z" fill="#373946"/>
<rect x="11.942" y="40.5304" width="13.2685" height="3.98055" rx="1.99028" fill="#4B47FF"/>
<rect x="42.8032" y="36.1567" width="46.0958" height="42.8032" rx="4.1157" fill="#4B47FF"/>
<path d="M51.7468 49.8307C51.7468 50.5635 52.3409 51.1575 53.0737 51.1575H71.9813C72.7141 51.1575 73.3082 50.5635 73.3082 49.8307C73.3082 49.0979 72.7141 48.5038 71.9813 48.5038H53.0737C52.3409 48.5038 51.7468 49.0979 51.7468 49.8307Z" fill="white"/>
<path d="M51.7468 57.1283C51.7468 57.8611 52.3409 58.4552 53.0737 58.4552H66.3422C67.075 58.4552 67.669 57.8611 67.669 57.1283C67.669 56.3955 67.075 55.8015 66.3422 55.8015H53.0737C52.3409 55.8015 51.7468 56.3955 51.7468 57.1283Z" fill="white"/>
<path d="M51.7468 65.0893C51.7468 65.8221 52.3409 66.4161 53.0737 66.4161H78.6156C79.3484 66.4161 79.9424 65.8221 79.9424 65.0893C79.9424 64.3565 79.3484 63.7624 78.6156 63.7624H53.0737C52.3409 63.7624 51.7468 64.3565 51.7468 65.0893Z" fill="white"/>
</svg>
